<svg width="169" height="86" viewBox="0 0 169 86" fill="none" xmlns="http://www.w3.org/2000/svg">
<g filter="url(#filter0_d_154_3)">
<rect x="18.9511" y="2.35107" width="144.805" height="39.3612" transform="rotate(14.7109 18.9511 2.35107)" fill="black"/>
<path d="M44.7591 20.1472L40.3267 37.0296L36.7573 36.0925L40.3003 22.5981L40.2013 22.5722L35.6989 23.9807L36.53 20.8152L41.4041 19.2664L44.7591 20.1472ZM54.9405 22.5736C55.8088 22.8016 56.6059 23.1665 57.3318 23.6684C58.0632 24.1718 58.6612 24.8252 59.1258 25.6286C59.5959 26.4335 59.8765 27.4118 59.9677 28.5636C60.0658 29.7114 59.9171 31.0499 59.5215 32.5791C59.1449 34.0134 58.6466 35.2513 58.0266 36.2928C57.4135 37.3302 56.7043 38.1632 55.8989 38.7918C55.0936 39.4204 54.2136 39.8297 53.2591 40.0197C52.306 40.2041 51.3074 40.1593 50.2632 39.8851C49.1367 39.5894 48.1989 39.1111 47.4501 38.4505C46.7028 37.7843 46.1641 37.0055 45.8342 36.1141C45.5112 35.2186 45.4189 34.2839 45.5571 33.3098L49.0771 34.2339C49.0528 34.8855 49.2158 35.4393 49.566 35.8955C49.9177 36.3462 50.4177 36.6566 51.0662 36.8269C52.1653 37.1154 53.1262 36.8566 53.9487 36.0505C54.7728 35.2388 55.4069 33.9984 55.851 32.3291L55.7356 32.2988C55.3529 32.7271 54.9004 33.0635 54.3779 33.3082C53.8569 33.5474 53.2937 33.6903 52.6881 33.7369C52.0881 33.7849 51.4775 33.7275 50.8565 33.5644C49.8618 33.3033 49.0356 32.8367 48.3779 32.1647C47.7202 31.4927 47.2735 30.6881 47.0378 29.7509C46.8022 28.8138 46.8221 27.8204 47.0977 26.7707C47.3895 25.6372 47.9153 24.6973 48.6751 23.951C49.435 23.2047 50.3532 22.7056 51.4297 22.4537C52.5132 22.1977 53.6835 22.2377 54.9405 22.5736ZM54.2294 25.3828C53.6743 25.2371 53.1451 25.2391 52.6417 25.389C52.1438 25.5402 51.71 25.8052 51.3403 26.184C50.9762 26.5642 50.7247 27.0298 50.5859 27.5808C50.4402 28.1358 50.4298 28.6677 50.5547 29.1763C50.6866 29.6809 50.9295 30.1206 51.2834 30.4955C51.6442 30.8663 52.0994 31.1239 52.649 31.2682C53.0611 31.3764 53.4633 31.3997 53.8554 31.3382C54.2475 31.2767 54.6081 31.1452 54.9371 30.9437C55.273 30.7382 55.562 30.4763 55.8042 30.158C56.0464 29.8398 56.2201 29.4801 56.3254 29.0789C56.4599 28.5444 56.4619 28.0221 56.3315 27.512C56.2011 27.0019 55.9541 26.5553 55.5907 26.172C55.2272 25.7887 54.7735 25.5257 54.2294 25.3828ZM65.9009 43.9908C64.6314 43.6575 63.5562 43.1549 62.6752 42.483C61.8011 41.8071 61.1783 41.0356 60.8068 40.1685C60.4353 39.3014 60.3693 38.4117 60.6088 37.4994C60.7935 36.796 61.1224 36.1921 61.5955 35.6878C62.0756 35.1794 62.6443 34.803 63.3018 34.5585C63.9608 34.3086 64.6481 34.2188 65.3639 34.2892L65.3942 34.1738C64.5406 33.7559 63.9244 33.1271 63.5456 32.2874C63.1683 31.4423 63.1009 30.5582 63.3433 29.6349C63.5727 28.7611 64.0324 28.0506 64.7224 27.5033C65.4138 26.9506 66.2559 26.5959 67.2486 26.4395C68.2483 26.279 69.3169 26.3481 70.4545 26.6468C71.5921 26.9454 72.5541 27.4095 73.3405 28.0389C74.1324 28.6698 74.6937 29.3958 75.0244 30.2169C75.3566 31.0325 75.4114 31.8752 75.189 32.745C74.9396 33.6723 74.441 34.4078 73.6932 34.9517C72.9453 35.4955 72.1052 35.7419 71.1728 35.691L71.1425 35.8064C71.7896 36.0938 72.336 36.5075 72.7817 37.0474C73.2343 37.5833 73.5448 38.1906 73.7132 38.8693C73.8886 39.5439 73.8866 40.2336 73.7075 40.9385C73.4624 41.8493 72.9652 42.5911 72.2156 43.1638C71.466 43.7366 70.5418 44.1019 69.443 44.2599C68.351 44.4138 67.1704 44.3241 65.9009 43.9908ZM66.5891 41.3694C67.1552 41.518 67.6765 41.5462 68.153 41.454C68.631 41.3562 69.0357 41.157 69.3673 40.8564C69.7058 40.5516 69.9378 40.1602 70.0633 39.6821C70.1917 39.193 70.1813 38.7291 70.0321 38.2905C69.8844 37.8464 69.6271 37.4616 69.2602 37.1362C68.8947 36.8053 68.4372 36.5677 67.8877 36.4234C67.3436 36.2805 66.8284 36.2628 66.342 36.37C65.8571 36.4718 65.4412 36.6798 65.0944 36.9941C64.7544 37.3043 64.5203 37.704 64.3919 38.1931C64.2663 38.6712 64.2734 39.1254 64.413 39.5556C64.5541 39.9804 64.8116 40.3534 65.1854 40.6748C65.5607 40.9907 66.0286 41.2222 66.5891 41.3694ZM68.5694 33.8267C69.042 33.9508 69.4877 33.965 69.9064 33.8693C70.3251 33.7737 70.6836 33.5829 70.9819 33.297C71.2802 33.0111 71.4878 32.6456 71.6046 32.2004C71.7201 31.7608 71.7166 31.3487 71.5944 30.9641C71.4736 30.5741 71.2563 30.238 70.9427 29.9559C70.6305 29.6683 70.2326 29.4611 69.7489 29.3341C69.2708 29.2086 68.8224 29.1936 68.4037 29.2893C67.9865 29.3795 67.6294 29.5648 67.3326 29.8452C67.0427 30.1215 66.84 30.4795 66.7246 30.9192C66.6077 31.3643 66.6089 31.7847 66.7283 32.1802C66.8477 32.5758 67.0662 32.9181 67.3839 33.2071C67.7016 33.4961 68.0968 33.7026 68.5694 33.8267ZM81.5326 48.2446C80.1162 47.8669 78.9878 47.1976 78.1474 46.2368C77.3126 45.2774 76.7928 44.0689 76.588 42.6112C76.3888 41.1549 76.5344 39.5042 77.0247 37.6591C77.508 35.8181 78.192 34.3206 79.0765 33.1665C79.9666 32.0138 81.0087 31.2329 82.2029 30.8239C83.404 30.4108 84.7107 30.3897 86.123 30.7605C87.5354 31.1313 88.6605 31.7909 89.4982 32.7393C90.3415 33.6891 90.8677 34.8846 91.0767 36.3259C91.2872 37.7616 91.148 39.3993 90.6592 41.2388C90.1729 43.0909 89.4826 44.6014 88.5882 45.7706C87.6993 46.9412 86.6556 47.7392 85.4571 48.1648C84.2587 48.5903 82.9505 48.6169 81.5326 48.2446ZM82.3096 45.2853C83.2768 45.5392 84.1766 45.2556 85.0091 44.4344C85.8415 43.6132 86.5103 42.2291 87.0156 40.2822C87.3518 39.0018 87.4998 37.901 87.4597 36.9799C87.425 36.0603 87.2249 35.3234 86.8593 34.7692C86.4992 34.2165 85.9977 33.8557 85.3547 33.6869C84.393 33.4344 83.4974 33.7133 82.6678 34.5235C81.8383 35.3337 81.169 36.6971 80.66 38.6136C80.3195 39.9105 80.1644 41.0271 80.1947 41.9632C80.2319 42.8952 80.4326 43.6411 80.7968 44.2008C81.1623 44.755 81.6666 45.1165 82.3096 45.2853ZM110.557 34.6995L106.406 50.5077L109.494 51.3183L113.644 35.5101L110.557 34.6995ZM104.729 35.7253L104.095 38.1395L110.34 39.7789L110.973 37.3647L104.729 35.7253ZM94.5374 50.4437L93.8914 52.9043L108.585 56.7621L109.231 54.3015L94.5374 50.4437ZM95.6588 46.1724L94.2083 51.6972L97.3189 52.5139L98.7694 46.9891L95.6588 46.1724ZM96.478 32.4672L93.8269 42.565L96.891 43.3694L99.5422 33.2717L96.478 32.4672ZM94.0706 41.6364L93.4124 44.1435L95.1302 44.5945C98.3569 45.4416 101.219 46.0691 104.529 46.3176L104.902 43.7607C101.698 43.4901 98.899 42.9041 95.7884 42.0874L94.0706 41.6364ZM103.681 39.718L103.041 42.1554L109.285 43.7948L109.925 41.3574L103.681 39.718ZM132.538 40.4706L126.894 61.9661L129.819 62.734L135.463 41.2385L132.538 40.4706ZM127.49 47.9788L126.838 50.4626L130.412 51.4012L131.065 48.9174L127.49 47.9788ZM127.635 39.5804L122.357 59.6831L125.212 60.4328L130.49 40.3301L127.635 39.5804ZM113.906 50.6654L113.242 53.1957L114.751 53.5918C117.513 54.3171 119.806 54.8447 122.54 55.0166L122.966 52.4486C120.291 52.2425 118.061 51.7564 115.415 51.0616L113.906 50.6654ZM116.96 39.0356L113.589 51.8725L116.653 52.677L119.372 42.3239L124.246 43.6038L124.898 41.1199L116.96 39.0356Z" fill="#FFC031"/>
</g>
<defs>
<filter id="filter0_d_154_3" x="4.95572" y="2.35107" width="158.054" height="82.8428" filterUnits="userSpaceOnUse" color-interpolation-filters="sRGB">
<feFlood flood-opacity="0" result="BackgroundImageFix"/>
<feColorMatrix in="SourceAlpha" type="matrix" values="0 0 0 0 0 0 0 0 0 0 0 0 0 0 0 0 0 0 127 0" result="hardAlpha"/>
<feOffset dy="4"/>
<feGaussianBlur stdDeviation="2"/>
<feComposite in2="hardAlpha" operator="out"/>
<feColorMatrix type="matrix" values="0 0 0 0 0 0 0 0 0 0 0 0 0 0 0 0 0 0 0.25 0"/>
<feBlend mode="normal" in2="BackgroundImageFix" result="effect1_dropShadow_154_3"/>
<feBlend mode="normal" in="SourceGraphic" in2="effect1_dropShadow_154_3" result="shape"/>
</filter>
</defs>
</svg>
