<svg width="206" height="50" viewBox="0 0 206 50" fill="none" xmlns="http://www.w3.org/2000/svg">
<path d="M2.05453 0L205.942 10.6569L203.887 49.9644L101.944 44.6359L-5.42666e-06 39.3075L2.05453 0Z" fill="white"/>
<path d="M35.325 10.2626L34.4139 27.6934L30.7286 27.5008L31.4569 13.5681L31.3547 13.5627L27.2322 15.8564L27.4031 12.5881L31.861 10.0816L35.325 10.2626ZM45.787 10.5705C46.6835 10.6174 47.5381 10.8128 48.3508 11.1568C49.1691 11.5012 49.8874 12.0195 50.5055 12.7118C51.1293 13.4044 51.6028 14.3053 51.926 15.4146C52.2552 16.5185 52.3814 17.8593 52.3046 19.437C52.2272 20.9179 51.9908 22.2313 51.5952 23.3769C51.2056 24.5172 50.6803 25.4769 50.0195 26.256C49.3586 27.0351 48.5801 27.6145 47.6841 27.9944C46.7883 28.3686 45.8014 28.5276 44.7233 28.4712C43.5601 28.4104 42.5448 28.1326 41.6774 27.6378C40.8103 27.1373 40.1247 26.4842 39.6207 25.6783C39.1226 24.8671 38.8423 23.9706 38.7798 22.9887L42.414 23.1787C42.5227 23.8216 42.7948 24.3308 43.2303 24.7063C43.6661 25.0762 44.2188 25.2786 44.8884 25.3136C46.0232 25.3729 46.9114 24.9243 47.5531 23.9679C48.1952 23.0058 48.5641 21.6624 48.6599 19.9378L48.5407 19.9316C48.253 20.4286 47.8783 20.8499 47.4164 21.1956C46.9549 21.5356 46.4323 21.7899 45.8489 21.9586C45.2711 22.1275 44.6616 22.1952 44.0205 22.1617C42.9934 22.108 42.0897 21.819 41.3092 21.2946C40.5287 20.7702 39.9279 20.0731 39.5068 19.2033C39.0857 18.3336 38.9035 17.3568 38.9601 16.2731C39.0155 15.1039 39.3395 14.0768 39.9319 13.1918C40.5244 12.3067 41.3221 11.6315 42.325 11.1662C43.3339 10.6955 44.4879 10.4969 45.787 10.5705ZM45.6613 13.4656C45.0882 13.4357 44.5704 13.5452 44.1079 13.7941C43.6511 14.0433 43.2802 14.3909 42.9951 14.8369C42.7158 15.2831 42.5641 15.7901 42.5401 16.3578C42.5102 16.9309 42.608 17.4537 42.8337 17.9264C43.0653 18.3937 43.3924 18.7749 43.8151 19.0701C44.2437 19.3599 44.7417 19.5196 45.3091 19.5493C45.7347 19.5715 46.1332 19.5127 46.5046 19.3728C46.8761 19.2329 47.2024 19.0309 47.4836 18.7668C47.7708 18.4974 48.0006 18.1822 48.1731 17.8214C48.3456 17.4606 48.4427 17.0731 48.4643 16.6589C48.4874 16.1082 48.3833 15.5964 48.152 15.1235C47.9207 14.6505 47.5882 14.2633 47.1544 13.9619C46.7207 13.6604 46.223 13.495 45.6613 13.4656ZM60.8689 29.3151C59.5582 29.2466 58.4033 28.9729 57.4042 28.4939C56.4111 28.0096 55.6446 27.3807 55.1047 26.6071C54.5648 25.8336 54.3194 24.9759 54.3687 24.034C54.4066 23.3077 54.606 22.6496 54.9668 22.0597C55.3336 21.4644 55.8141 20.9802 56.4082 20.6073C57.0027 20.2288 57.6575 20.0013 58.3727 19.9249L58.3789 19.8057C57.4582 19.5698 56.7271 19.0793 56.1857 18.3341C55.6446 17.5832 55.399 16.7312 55.4488 15.778C55.4959 14.8758 55.8018 14.0867 56.3662 13.4107C56.931 12.729 57.6835 12.2108 58.6237 11.8559C59.57 11.4958 60.6304 11.3464 61.8049 11.4077C62.9794 11.4691 64.0156 11.7281 64.9135 12.1847C65.817 12.6416 66.514 13.2384 67.0047 13.9753C67.4956 14.7064 67.7204 15.5204 67.6793 16.4172C67.6235 17.3758 67.2847 18.1973 66.6629 18.8817C66.0411 19.5661 65.2685 19.9781 64.3452 20.1176L64.339 20.2367C65.031 20.3867 65.65 20.6807 66.196 21.1189C66.748 21.5517 67.1754 22.0833 67.4782 22.7136C67.7869 23.3385 67.9251 24.0143 67.8928 24.7408C67.8379 25.6824 67.5016 26.5098 66.884 27.2228C66.2664 27.9359 65.4357 28.4813 64.3918 28.8592C63.3539 29.2316 62.1796 29.3836 60.8689 29.3151ZM61.0104 26.6086C61.5948 26.6391 62.1109 26.5609 62.5588 26.3737C63.007 26.181 63.3629 25.9037 63.6264 25.542C63.896 25.1749 64.0436 24.7445 64.0694 24.2508C64.0958 23.7458 63.9914 23.2938 63.7563 22.8946C63.5214 22.4897 63.1913 22.1652 62.766 21.9211C62.3409 21.6713 61.8447 21.5316 61.2773 21.5019C60.7155 21.4726 60.2075 21.5598 59.753 21.7636C59.2989 21.9618 58.9339 22.2499 58.6581 22.6281C58.3883 23.0009 58.2402 23.4398 58.2138 23.9448C58.188 24.4384 58.2871 24.8817 58.5112 25.2746C58.7357 25.6619 59.0635 25.9748 59.4948 26.2136C59.9264 26.4467 60.4316 26.5783 61.0104 26.6086ZM61.4174 18.8209C61.9054 18.8464 62.3446 18.7698 62.7352 18.5911C63.1257 18.4124 63.438 18.1527 63.672 17.8122C63.906 17.4717 64.035 17.0716 64.059 16.612C64.0828 16.1581 63.9957 15.7553 63.7979 15.4036C63.6004 15.0462 63.3194 14.7613 62.955 14.5488C62.5909 14.3306 62.1592 14.2085 61.6599 14.1824C61.1662 14.1566 60.7241 14.233 60.3336 14.4117C59.9433 14.5848 59.6314 14.8387 59.3977 15.1736C59.1699 15.5031 59.0442 15.8948 59.0205 16.3487C58.9964 16.8083 59.083 17.2196 59.2803 17.5827C59.4775 17.9457 59.761 18.2365 60.1308 18.455C60.5006 18.6734 60.9294 18.7954 61.4174 18.8209ZM77.0388 30.3054C75.5752 30.2232 74.3344 29.797 73.3164 29.0269C72.3041 28.2571 71.5496 27.1794 71.0531 25.7936C70.5622 24.4081 70.3695 22.7623 70.4748 20.8561C70.5742 18.9553 70.9397 17.35 71.5714 16.0403C72.2088 14.7309 73.0706 13.7547 74.1568 13.1116C75.2489 12.4632 76.5241 12.1771 77.9824 12.2533C79.4406 12.3295 80.6762 12.7469 81.6891 13.5053C82.7077 14.2641 83.4657 15.3278 83.9632 16.6965C84.4609 18.0596 84.6572 19.6914 84.5522 21.5919C84.4522 23.5041 84.0831 25.1234 83.4448 26.4498C82.8122 27.7766 81.9524 28.77 80.8653 29.4301C79.7782 30.0901 78.5027 30.3819 77.0388 30.3054ZM77.1985 27.2499C78.1972 27.3021 79.0206 26.8416 79.6689 25.8684C80.3172 24.8953 80.691 23.4042 80.7903 21.3953C80.8594 20.0732 80.7807 18.9653 80.5543 18.0716C80.3336 17.1782 79.988 16.4973 79.5175 16.0289C79.0527 15.5608 78.4883 15.3095 77.8244 15.2748C76.8315 15.2229 76.0112 15.6778 75.3635 16.6396C74.7158 17.6015 74.3374 19.0724 74.2282 21.0523C74.1582 22.3914 74.2331 23.5161 74.4529 24.4266C74.6787 25.3317 75.0267 26.0212 75.497 26.4953C75.9675 26.9636 76.5347 27.2152 77.1985 27.2499ZM101.832 27.4201L104.996 27.5854L105.844 11.3596L102.68 11.1942L102.552 13.6389L97.2078 13.3595L97.0775 15.8521L102.422 16.1315L102.337 17.7612L96.9923 17.4819L96.862 19.9745L102.207 20.2538L101.832 27.4201ZM99.0119 21.1443C96.2785 21.4821 93.8251 21.5221 91.1622 21.431L91.6545 12.0118L88.5148 11.8477L87.8872 23.8553L89.6608 23.948C92.9683 24.1209 95.8985 24.1539 99.1894 23.7251L99.0119 21.1443ZM93.4573 29.9383L93.6865 25.5523L90.5228 25.387L90.1621 32.2896L105.214 33.0763L105.345 30.5597L93.4573 29.9383ZM112.909 16.8478L117.966 17.1122L118.1 14.5477L109.928 14.1205L109.166 28.6926L110.7 28.7728C113.528 28.9206 115.882 28.9475 118.592 28.5845L118.487 26.0075C116.358 26.2807 114.482 26.3028 112.418 26.243L112.909 16.8478ZM125.377 12.3565L124.932 20.8649L122.943 20.7609L123.365 12.6839L120.417 12.5298L119.338 33.1657L122.286 33.3197L122.81 23.3014L124.799 23.4054L124.222 34.4543L127.218 34.6109L128.373 12.5131L125.377 12.3565ZM152.157 13.7562L150.999 35.902L154.163 36.0674L155.321 13.9216L152.157 13.7562ZM143.375 14.8594C140.044 14.6852 137.417 17.5761 137.164 22.4175C136.91 27.2828 139.22 30.4557 142.551 30.6298C145.882 30.804 148.51 27.8892 148.765 23.0238C149.018 18.1824 146.707 15.0335 143.375 14.8594ZM143.226 17.7115C144.856 17.7967 145.891 19.6052 145.721 22.8647C145.549 26.1482 144.331 27.839 142.701 27.7538C141.072 27.6686 140.037 25.8601 140.208 22.5766C140.379 19.317 141.596 17.6263 143.226 17.7115ZM170.622 20.4652L170.488 23.0297L173.939 23.2101L173.53 31.0474L176.693 31.2128L177.535 15.1068L174.371 14.9414L174.073 20.6456L170.622 20.4652ZM171.818 25.6227C168.405 24.2667 167.036 21.4794 167.173 18.867L167.188 18.5794L171.478 18.8036L171.609 16.2871L159.746 15.667L159.614 18.1835L163.952 18.4103L163.936 18.7218C163.791 21.502 162.057 24.3194 158.377 25.3046L159.851 27.9051C162.461 27.1764 164.278 25.5169 165.374 23.3873C166.229 25.4267 167.776 27.0937 170.155 28.0111L171.818 25.6227ZM165.148 33.6855L165.379 29.2756L162.215 29.1102L161.853 36.0367L176.905 36.8235L177.036 34.3069L165.148 33.6855Z" fill="#47292C"/>
</svg>
