<svg width="171" height="87" viewBox="0 0 171 87" fill="none" xmlns="http://www.w3.org/2000/svg">
<g filter="url(#filter0_d_154_27)">
<rect x="19.0021" y="6.92285" width="144.805" height="39.3612" transform="rotate(13.3361 19.0021 6.92285)" fill="black"/>
<path d="M45.6848 42.1408L46.2981 39.5534L53.6706 35.3888C54.3027 35.0131 54.8401 34.6675 55.2828 34.352C55.731 34.0378 56.0915 33.7116 56.3644 33.3734C56.6386 33.0297 56.8287 32.6339 56.9349 32.1861C57.0528 31.6885 57.0411 31.2331 56.8996 30.8201C56.7594 30.4014 56.516 30.0488 56.1693 29.7623C55.824 29.4702 55.4025 29.2652 54.905 29.1472C54.3853 29.024 53.907 29.0216 53.4702 29.14C53.0334 29.2583 52.6634 29.4889 52.3603 29.8316C52.0572 30.1743 51.8414 30.6166 51.7129 31.1584L48.3046 30.3504C48.568 29.2392 49.0482 28.334 49.7453 27.6351C50.4424 26.9361 51.2973 26.4702 52.3102 26.2373C53.323 26.0044 54.421 26.0282 55.6041 26.3087C56.8204 26.597 57.828 27.0636 58.627 27.7085C59.4328 28.3491 59.9974 29.1078 60.321 29.9844C60.6445 30.8611 60.6903 31.7887 60.4583 32.7673C60.3063 33.4086 60.0291 34.0115 59.6267 34.5759C59.2298 35.1417 58.6203 35.73 57.7981 36.341C56.9772 36.9463 55.8577 37.6415 54.4395 38.4265L51.384 40.2685L51.3564 40.3846L58.4883 42.0753L57.7924 45.0109L45.6848 42.1408ZM66.965 47.5795C65.54 47.2359 64.3958 46.5938 63.5327 45.6535C62.675 44.7144 62.1264 43.5187 61.8867 42.0663C61.6526 40.6152 61.7585 38.9615 62.2044 37.1052C62.6434 35.2531 63.2913 33.7396 64.1479 32.5646C65.0101 31.3909 66.0332 30.5853 67.2171 30.1477C68.408 29.7059 69.7138 29.6535 71.1347 29.9903C72.5555 30.3271 73.6961 30.9595 74.5564 31.8875C75.4222 32.8168 75.9769 33.9994 76.2204 35.4352C76.4653 36.8655 76.3654 38.506 75.9209 40.3568C75.4792 42.2199 74.8253 43.7466 73.9592 44.9369C73.0987 46.1285 72.0744 46.9514 70.8865 47.4055C69.6986 47.8596 68.3914 47.9177 66.965 47.5795ZM67.6708 44.6024C68.6438 44.833 69.5366 44.5279 70.3491 43.6869C71.1615 42.846 71.797 41.4463 72.2554 39.4879C72.5608 38.1997 72.6823 37.0957 72.6201 36.1759C72.5634 35.2573 72.3457 34.5254 71.9669 33.9802C71.5937 33.4362 71.0836 33.0876 70.4368 32.9343C69.4693 32.7049 68.5806 33.0052 67.7707 33.8351C66.9609 34.665 66.3245 36.044 65.8616 37.9722C65.5523 39.2769 65.424 40.3969 65.4768 41.332C65.5364 42.2629 65.7549 43.0037 66.1324 43.5545C66.5111 44.0997 67.0239 44.449 67.6708 44.6024ZM87.8873 34.2068L83.8611 51.1907L80.2703 50.3395L83.4885 36.764L83.3889 36.7404L78.9216 38.2565L79.6765 35.072L84.512 33.4067L87.8873 34.2068ZM88.5694 52.3068L98.9128 40.0438L98.9403 39.9277L90.7386 37.9834L91.4345 35.0477L103.351 37.8727L102.646 40.8499L92.2764 53.1856L88.5694 52.3068ZM120.97 39.3428L117.2 55.2461L120.306 55.9823L124.076 40.0791L120.97 39.3428ZM115.169 40.5081L114.593 42.9368L120.875 44.426L121.45 41.9973L115.169 40.5081ZM105.333 55.4668L104.746 57.9422L119.528 61.4464L120.115 58.971L105.333 55.4668ZM106.352 51.1698L105.034 56.7278L108.163 57.4696L109.481 51.9117L106.352 51.1698ZM106.842 37.4489L104.434 47.6074L107.516 48.3381L109.924 38.1796L106.842 37.4489ZM104.655 46.6733L104.057 49.1954L105.785 49.605C109.031 50.3745 111.908 50.9331 115.222 51.1022L115.534 48.537C112.325 48.3434 109.512 47.8247 106.383 47.0829L104.655 46.6733ZM114.216 44.5248L113.635 46.9768L119.917 48.466L120.498 46.0139L114.216 44.5248Z" fill="#FFC031"/>
</g>
<defs>
<filter id="filter0_d_154_27" x="5.9229" y="6.92285" width="157.979" height="79.7012" filterUnits="userSpaceOnUse" color-interpolation-filters="sRGB">
<feFlood flood-opacity="0" result="BackgroundImageFix"/>
<feColorMatrix in="SourceAlpha" type="matrix" values="0 0 0 0 0 0 0 0 0 0 0 0 0 0 0 0 0 0 127 0" result="hardAlpha"/>
<feOffset dy="4"/>
<feGaussianBlur stdDeviation="2"/>
<feComposite in2="hardAlpha" operator="out"/>
<feColorMatrix type="matrix" values="0 0 0 0 0 0 0 0 0 0 0 0 0 0 0 0 0 0 0.25 0"/>
<feBlend mode="normal" in2="BackgroundImageFix" result="effect1_dropShadow_154_27"/>
<feBlend mode="normal" in="SourceGraphic" in2="effect1_dropShadow_154_27" result="shape"/>
</filter>
</defs>
</svg>
