<svg width="167" height="66" viewBox="0 0 167 66" fill="none" xmlns="http://www.w3.org/2000/svg">
<g filter="url(#filter0_d_89_30)">
<rect x="13.2684" y="0.879883" width="144.805" height="42.6475" transform="rotate(5.45058 13.2684 0.879883)" fill="white"/>
<path d="M78.99 15.6648L77.3828 32.5083L80.5604 32.8115L82.1675 15.968L78.99 15.6648ZM75.577 20.8601L75.3354 23.3926L79.4208 23.7824L79.6625 21.2499L75.577 20.8601ZM75.1234 25.6145L74.884 28.1231L78.9695 28.5129L79.2088 26.0043L75.1234 25.6145ZM63.5045 16.5016L63.2674 18.9863L75.4042 20.1444L75.6413 17.6597L63.5045 16.5016ZM69.4039 20.3675C66.3936 20.0802 64.0485 21.6646 63.8046 24.221C63.5606 26.7774 65.5638 28.7767 68.5741 29.064C71.5844 29.3512 73.9295 27.7668 74.1735 25.2104C74.4174 22.654 72.4143 20.6547 69.4039 20.3675ZM69.1714 22.8044C70.4615 22.9275 71.3033 23.707 71.187 24.9255C71.0685 26.1678 70.0968 26.7501 68.8066 26.627C67.5165 26.5039 66.6725 25.7483 66.791 24.506C66.9073 23.2875 67.8813 22.6813 69.1714 22.8044ZM68.3651 14.5786L67.9935 18.4729L71.1711 18.7761L71.5427 14.8818L68.3651 14.5786ZM65.6915 33.7554L65.4498 36.2879L80.5731 37.7309L80.8148 35.1984L65.6915 33.7554ZM66.0471 30.0283L65.5798 34.9261L68.7812 35.2315L69.2486 30.3338L66.0471 30.0283ZM101.616 17.7996L99.5046 39.9231L102.515 40.2103L104.626 18.0868L101.616 17.7996ZM97.8415 26.0222L97.5976 28.5786L101.277 28.9297L101.521 26.3733L97.8415 26.0222ZM96.6336 17.7099L94.6594 38.3999L97.598 38.6803L99.5723 17.9903L96.6336 17.7099ZM84.8673 30.8597L84.6189 33.4639L86.1718 33.6121C89.0149 33.8834 91.3631 34.0351 94.0891 33.7648L94.0964 31.1617C91.4227 31.3888 89.1439 31.2678 86.4203 31.0079L84.8673 30.8597ZM86.0095 18.8901L84.7488 32.1021L87.9025 32.403L88.9192 21.7474L93.9364 22.2261L94.1804 19.6698L86.0095 18.8901Z" fill="#47292C"/>
</g>
<defs>
<filter id="filter0_d_89_30" x="5.21742" y="0.879883" width="156.201" height="64.209" filterUnits="userSpaceOnUse" color-interpolation-filters="sRGB">
<feFlood flood-opacity="0" result="BackgroundImageFix"/>
<feColorMatrix in="SourceAlpha" type="matrix" values="0 0 0 0 0 0 0 0 0 0 0 0 0 0 0 0 0 0 127 0" result="hardAlpha"/>
<feOffset dy="4"/>
<feGaussianBlur stdDeviation="2"/>
<feComposite in2="hardAlpha" operator="out"/>
<feColorMatrix type="matrix" values="0 0 0 0 0 0 0 0 0 0 0 0 0 0 0 0 0 0 0.25 0"/>
<feBlend mode="normal" in2="BackgroundImageFix" result="effect1_dropShadow_89_30"/>
<feBlend mode="normal" in="SourceGraphic" in2="effect1_dropShadow_89_30" result="shape"/>
</filter>
</defs>
</svg>
