<svg width="167" height="66" viewBox="0 0 167 66" fill="none" xmlns="http://www.w3.org/2000/svg">
<g filter="url(#filter0_d_89_30)">
<rect x="13.2684" y="0.879883" width="144.805" height="42.6475" transform="rotate(5.45058 13.2684 0.879883)" fill="white"/>
<path d="M19.1169 30.1069L19.3694 27.4598L26.1009 22.3232C26.6755 21.8643 27.1604 21.4482 27.5555 21.075C27.9564 20.7023 28.2688 20.3297 28.4927 19.9573C28.7171 19.5791 28.8512 19.161 28.8949 18.7029C28.9435 18.1938 28.8693 17.7444 28.6725 17.3546C28.4762 16.9592 28.1867 16.6433 27.804 16.407C27.4219 16.1651 26.9763 16.0198 26.4672 15.9713C25.9356 15.9205 25.4615 15.9838 25.0451 16.1609C24.6286 16.3381 24.2938 16.6172 24.0405 16.9983C23.7873 17.3793 23.6342 17.847 23.5813 18.4013L20.0943 18.0686C20.2028 16.9317 20.5543 15.9693 21.1489 15.1813C21.7435 14.3933 22.5264 13.8145 23.4978 13.4448C24.4691 13.0752 25.5599 12.9481 26.7704 13.0636C28.0147 13.1824 29.0768 13.5063 29.9567 14.0355C30.8427 14.5595 31.5061 15.2335 31.9469 16.0575C32.3877 16.8815 32.5603 17.7941 32.4647 18.7952C32.4021 19.4513 32.2103 20.0865 31.8891 20.7008C31.5736 21.3157 31.0505 21.9821 30.3199 22.7C29.5899 23.4123 28.5763 24.2545 27.2793 25.2266L24.5053 27.4704L24.494 27.5892L31.7904 28.2854L31.5038 31.2888L19.1169 30.1069ZM40.9421 32.5747C39.4833 32.4298 38.2619 31.9508 37.2779 31.1377C36.2995 30.3252 35.592 29.2161 35.1554 27.8103C34.7244 26.4051 34.6024 24.7525 34.7894 22.8526C34.9702 20.9577 35.4043 19.3696 36.0916 18.0882C36.7846 16.8073 37.6875 15.869 38.8002 15.2731C39.9192 14.6721 41.2055 14.441 42.6591 14.5797C44.1128 14.7184 45.3293 15.1884 46.3088 15.9896C47.2939 16.7913 48.0056 17.8866 48.4438 19.2754C48.8826 20.6586 49.0087 22.2973 48.8223 24.1915C48.6404 26.0977 48.2022 27.6996 47.5076 28.9975C46.8186 30.2959 45.917 31.2515 44.8026 31.8643C43.6882 32.4771 42.4014 32.7139 40.9421 32.5747ZM41.2327 29.5289C42.2282 29.6238 43.0706 29.1991 43.7601 28.2546C44.4495 27.3102 44.8869 25.8365 45.0723 23.8337C45.198 22.5158 45.167 21.4056 44.9791 20.503C44.797 19.6009 44.4809 18.9058 44.0309 18.4177C43.5866 17.9301 43.0335 17.6547 42.3717 17.5916C41.3819 17.4972 40.5428 17.9165 39.8545 18.8497C39.1662 19.7828 38.725 21.2361 38.531 23.2096C38.4036 24.5444 38.4302 25.6713 38.6108 26.5904C38.7975 27.5043 39.1156 28.2082 39.5651 28.7019C40.0151 29.1901 40.5709 29.4657 41.2327 29.5289ZM57.3908 34.1442C55.9321 33.9993 54.7107 33.5203 53.7266 32.7073C52.7483 31.8947 52.0408 30.7856 51.6041 29.3798C51.1732 27.9746 51.0512 26.322 51.2382 24.4221C51.419 22.5273 51.853 20.9392 52.5404 19.6577C53.2333 18.3769 54.1362 17.4385 55.249 16.8426C56.3679 16.2417 57.6542 16.0105 59.1079 16.1492C60.5615 16.2879 61.778 16.7579 62.7575 17.5591C63.7426 18.3608 64.4543 19.4561 64.8925 20.8449C65.3313 22.2281 65.4575 23.8668 65.271 25.7611C65.0891 27.6672 64.6509 29.2692 63.9563 30.567C63.2674 31.8654 62.3657 32.821 61.2513 33.4338C60.1369 34.0466 58.8501 34.2834 57.3908 34.1442ZM57.6814 31.0984C58.6769 31.1934 59.5194 30.7686 60.2088 29.8241C60.8982 28.8797 61.3356 27.406 61.521 25.4032C61.6468 24.0854 61.6157 22.9751 61.4279 22.0725C61.2457 21.1704 60.9296 20.4753 60.4796 19.9872C60.0353 19.4996 59.4822 19.2243 58.8205 19.1611C57.8306 19.0667 56.9916 19.486 56.3032 20.4192C55.6149 21.3523 55.1737 22.8056 54.9797 24.7791C54.8523 26.1139 54.8789 27.2409 55.0595 28.1599C55.2462 29.0738 55.5644 29.7777 56.0138 30.2715C56.4638 30.7596 57.0197 31.0352 57.6814 31.0984ZM73.8395 35.7137C72.3808 35.5688 71.1594 35.0898 70.1754 34.2768C69.197 33.4643 68.4895 32.3551 68.0529 30.9493C67.6219 29.5441 67.4999 27.8915 67.6869 25.9916C67.8677 24.0968 68.3018 22.5087 68.9891 21.2272C69.6821 19.9464 70.5849 19.008 71.6977 18.4121C72.8167 17.8112 74.103 17.58 75.5566 17.7187C77.0102 17.8574 78.2268 18.3274 79.2062 19.1286C80.1913 19.9303 80.903 21.0256 81.3413 22.4144C81.78 23.7976 81.9062 25.4363 81.7197 27.3306C81.5379 29.2367 81.0996 30.8387 80.405 32.1365C79.7161 33.4349 78.8144 34.3905 77.7 35.0033C76.5856 35.6162 75.2988 35.8529 73.8395 35.7137ZM74.1302 32.6679C75.1256 32.7629 75.9681 32.3381 76.6575 31.3937C77.3469 30.4492 77.7843 28.9756 77.9697 26.9727C78.0955 25.6549 78.0644 24.5446 77.8766 23.642C77.6944 22.74 77.3783 22.0449 76.9283 21.5567C76.484 21.0691 75.931 20.7938 75.2692 20.7306C74.2794 20.6362 73.4403 21.0555 72.7519 21.9887C72.0636 22.9218 71.6224 24.3751 71.4284 26.3486C71.3011 27.6834 71.3277 28.8104 71.5082 29.7294C71.695 30.6433 72.0131 31.3472 72.4625 31.841C72.9125 32.3291 73.4684 32.6047 74.1302 32.6679ZM100.306 17.6746L98.7531 33.9447L101.931 34.2479L103.483 17.9778L100.306 17.6746ZM94.7191 19.6247L94.482 22.1094L100.909 22.7227L101.146 20.238L94.7191 19.6247ZM87.0287 35.7913L86.7871 38.3238L101.91 39.7669L102.152 37.2344L87.0287 35.7913ZM87.4482 31.3953L86.9056 37.0815L90.1071 37.387L90.6496 31.7008L87.4482 31.3953ZM86.0512 17.7369L85.0596 28.1296L88.2132 28.4306L89.2049 18.0378L86.0512 17.7369ZM85.1508 27.174L84.9045 29.7543L86.6725 29.923C89.9934 30.2398 92.9196 30.3985 96.2258 30.1113L96.1831 27.5275C92.9769 27.7761 90.1202 27.6482 86.9187 27.3427L85.1508 27.174ZM94.327 23.7341L94.0876 26.2427L100.514 26.8559L100.754 24.3473L94.327 23.7341ZM122.929 19.8332L120.818 41.9568L123.828 42.244L125.939 20.1205L122.929 19.8332ZM119.155 28.0559L118.911 30.6123L122.59 30.9634L122.834 28.407L119.155 28.0559ZM117.947 19.7436L115.973 40.4336L118.911 40.714L120.886 20.024L117.947 19.7436ZM106.181 32.8934L105.932 35.4976L107.485 35.6458C110.328 35.9171 112.676 36.0688 115.402 35.7985L115.41 33.1954C112.736 33.4225 110.457 33.3015 107.734 33.0416L106.181 32.8934ZM107.323 20.9238L106.062 34.1358L109.216 34.4367L110.233 23.7811L115.25 24.2598L115.494 21.7034L107.323 20.9238ZM133.861 36.3212C133.93 35.2489 134.146 34.3564 134.511 33.6435C134.876 32.9306 135.356 32.4085 135.953 32.0774C136.555 31.7467 137.238 31.6178 138.002 31.6907C138.534 31.7414 139.032 31.9003 139.497 32.1673C139.963 32.4343 140.478 32.8687 141.043 33.4705C141.343 33.7903 141.599 34.0373 141.811 34.2116C142.023 34.3803 142.276 34.4786 142.57 34.5067C142.972 34.545 143.318 34.421 143.608 34.1348C143.898 33.8428 144.067 33.3539 144.116 32.6679L146.881 32.9318C146.819 34.0102 146.602 34.9056 146.231 35.618C145.861 36.3303 145.374 36.8518 144.772 37.1825C144.17 37.5131 143.493 37.6425 142.74 37.5708C142.18 37.5173 141.665 37.3512 141.195 37.0723C140.732 36.7884 140.228 36.3579 139.683 35.7808C139.362 35.4363 139.104 35.1861 138.907 35.0304C138.712 34.8691 138.47 34.7746 138.181 34.7471C137.779 34.7088 137.434 34.8299 137.145 35.1105C136.856 35.3855 136.686 35.8773 136.636 36.5859L133.861 36.3212Z" fill="#47292C"/>
</g>
<defs>
<filter id="filter0_d_89_30" x="5.21742" y="0.879883" width="156.201" height="64.209" filterUnits="userSpaceOnUse" color-interpolation-filters="sRGB">
<feFlood flood-opacity="0" result="BackgroundImageFix"/>
<feColorMatrix in="SourceAlpha" type="matrix" values="0 0 0 0 0 0 0 0 0 0 0 0 0 0 0 0 0 0 127 0" result="hardAlpha"/>
<feOffset dy="4"/>
<feGaussianBlur stdDeviation="2"/>
<feComposite in2="hardAlpha" operator="out"/>
<feColorMatrix type="matrix" values="0 0 0 0 0 0 0 0 0 0 0 0 0 0 0 0 0 0 0.25 0"/>
<feBlend mode="normal" in2="BackgroundImageFix" result="effect1_dropShadow_89_30"/>
<feBlend mode="normal" in="SourceGraphic" in2="effect1_dropShadow_89_30" result="shape"/>
</filter>
</defs>
</svg>
