<svg width="187" height="94" viewBox="0 0 187 94" fill="none" xmlns="http://www.w3.org/2000/svg">
<rect y="55.804" width="182.662" height="39.3612" transform="rotate(-17.5333 0 55.804)" fill="white"/>
<path d="M13.9956 60.9059L19.2539 77.5495L15.735 78.6612L11.5319 65.3577L11.4344 65.3885L8.37781 68.982L7.39187 65.8613L10.688 61.9508L13.9956 60.9059ZM23.9013 57.526C24.7574 57.2555 25.6262 57.1389 26.508 57.1762C27.3951 57.2117 28.2495 57.4453 29.0711 57.8769C29.8981 58.3068 30.6574 58.9845 31.3491 59.9101C32.0444 60.8285 32.6327 62.0399 33.114 63.5444C33.5608 64.9584 33.7998 66.2713 33.831 67.483C33.866 68.6875 33.7106 69.7704 33.3648 70.7317C33.019 71.6931 32.4931 72.5087 31.7872 73.1786C31.0795 73.8432 30.211 74.338 29.1816 74.6632C28.0709 75.0141 27.0227 75.11 26.0368 74.9507C25.0493 74.786 24.1782 74.4147 23.4236 73.8368C22.6727 73.2517 22.0958 72.5104 21.6931 71.6127L25.1632 70.5164C25.4904 71.0804 25.9237 71.4619 26.4633 71.6609C27.0011 71.8544 27.5897 71.8502 28.229 71.6482C29.3126 71.3059 29.9872 70.5743 30.2528 69.4536C30.5167 68.3275 30.3912 66.94 29.8762 65.2913L29.7625 65.3272C29.6673 65.8936 29.464 66.4196 29.1527 66.9053C28.8397 67.3855 28.4395 67.8069 27.9522 68.1694C27.4703 68.5302 26.9233 68.8073 26.3111 69.0007C25.3304 69.3106 24.3827 69.3567 23.4679 69.1393C22.553 68.9218 21.746 68.4796 21.0467 67.8127C20.3474 67.1458 19.8342 66.295 19.5073 65.2602C19.1493 64.1458 19.0925 63.0703 19.3371 62.0337C19.5816 60.9971 20.0919 60.0851 20.868 59.2977C21.6478 58.5031 22.6589 57.9126 23.9013 57.526ZM24.7987 60.2814C24.2515 60.4543 23.8049 60.7384 23.4591 61.1336C23.1187 61.5272 22.8932 61.9828 22.7826 62.5004C22.6774 63.0162 22.7132 63.5442 22.8897 64.0843C23.0626 64.6315 23.3376 65.0869 23.7146 65.4504C24.0954 65.8068 24.5354 66.0491 25.0347 66.1774C25.5378 66.2985 26.0602 66.2735 26.602 66.1023C27.0083 65.9739 27.3609 65.7791 27.6597 65.5179C27.9585 65.2566 28.1933 64.953 28.3641 64.6071C28.5385 64.2541 28.6433 63.8783 28.6783 63.48C28.7133 63.0816 28.6684 62.6846 28.5434 62.2891C28.372 61.7653 28.095 61.3225 27.7126 60.9607C27.3301 60.5989 26.8829 60.3528 26.3711 60.2226C25.8592 60.0923 25.335 60.1119 24.7987 60.2814ZM39.009 52.7529C39.865 52.4825 40.7339 52.3659 41.6156 52.4031C42.5028 52.4386 43.3572 52.6722 44.1788 53.1038C45.0058 53.5337 45.7651 54.2115 46.4568 55.137C47.1521 56.0554 47.7404 57.2669 48.2217 58.7713C48.6685 60.1854 48.9075 61.4982 48.9387 62.7099C48.9737 63.9144 48.8182 64.9973 48.4725 65.9586C48.1267 66.92 47.6008 67.7356 46.8949 68.4055C46.1872 69.0701 45.3186 69.5649 44.2892 69.8902C43.1786 70.2411 42.1303 70.3369 41.1445 70.1776C40.157 70.0129 39.2859 69.6416 38.5313 69.0637C37.7804 68.4786 37.2035 67.7373 36.8008 66.8397L40.2709 65.7433C40.598 66.3073 41.0314 66.6888 41.571 66.8878C42.1088 67.0813 42.6974 67.0771 43.3367 66.8751C44.4203 66.5328 45.0948 65.8013 45.3605 64.6805C45.6244 63.5544 45.4989 62.167 44.9839 60.5182L44.8701 60.5542C44.775 61.1205 44.5717 61.6465 44.2604 62.1322C43.9474 62.6124 43.5472 63.0338 43.0599 63.3963C42.578 63.7571 42.031 64.0342 41.4188 64.2277C40.4381 64.5375 39.4904 64.5837 38.5756 64.3662C37.6607 64.1487 36.8537 63.7066 36.1544 63.0397C35.455 62.3728 34.9419 61.5219 34.615 60.4871C34.257 59.3727 34.2002 58.2973 34.4447 57.2607C34.6893 56.2241 35.1996 55.312 35.9757 54.5246C36.7555 53.73 37.7666 53.1395 39.009 52.7529ZM39.9064 55.5083C39.3592 55.6812 38.9126 55.9653 38.5668 56.3606C38.2264 56.7541 38.0009 57.2097 37.8903 57.7273C37.7851 58.2432 37.8208 58.7711 37.9974 59.3112C38.1703 59.8584 38.4453 60.3138 38.8223 60.6773C39.203 61.0337 39.6431 61.276 40.1424 61.4043C40.6455 61.5254 41.1679 61.5004 41.7097 61.3292C42.116 61.2009 42.4686 61.006 42.7674 60.7448C43.0662 60.4835 43.301 60.18 43.4718 59.834C43.6462 59.481 43.751 59.1053 43.786 58.7069C43.821 58.3085 43.7761 57.9116 43.6511 57.5161C43.4796 56.9922 43.2027 56.5494 42.8202 56.1876C42.4378 55.8258 41.9906 55.5798 41.4787 55.4495C40.9669 55.3192 40.4427 55.3389 39.9064 55.5083ZM60.0663 65.0575C58.6668 65.4937 57.3554 65.5297 56.132 65.1654C54.914 64.7994 53.8296 64.0546 52.8787 62.9309C51.9332 61.8055 51.1756 60.3317 50.6059 58.5096C50.0325 56.6947 49.812 55.0631 49.9444 53.6151C50.0822 52.1653 50.547 50.9488 51.3388 49.9658C52.1342 48.9756 53.2282 48.2605 54.6206 47.8206C56.0129 47.3807 57.3164 47.3384 58.531 47.6935C59.7509 48.0469 60.8338 48.7774 61.7795 49.8848C62.7236 50.9868 63.4796 52.4462 64.0476 54.2629C64.6244 56.0887 64.8465 57.7346 64.7138 59.2007C64.5866 60.665 64.1296 61.8968 63.343 62.8961C62.5564 63.8955 61.4641 64.6159 60.0663 65.0575ZM59.1446 62.14C60.0981 61.8388 60.7079 61.1188 60.9738 59.9801C61.2397 58.8414 61.0669 57.314 60.4556 55.3978C60.0567 54.1354 59.5946 53.1254 59.0693 52.3678C58.5493 51.6085 57.9869 51.092 57.382 50.8183C56.7826 50.5429 56.1659 50.5054 55.532 50.7056C54.5839 51.0052 53.9752 51.7189 53.7059 52.8467C53.4365 53.9746 53.5979 55.4848 54.1898 57.3773C54.5938 58.656 55.0583 59.683 55.5834 60.4586C56.1122 61.2271 56.6799 61.7508 57.2865 62.0299C57.8913 62.3036 58.5107 62.3403 59.1446 62.14ZM73.9275 49.6131L74.7954 52.3599L67.205 54.758L66.3371 52.0112L73.9275 49.6131ZM79.4388 58.5348L78.6377 55.9993L82.8291 48.642C83.1789 47.9952 83.4628 47.4228 83.6809 46.9249C83.9044 46.4253 84.0465 45.9603 84.1072 45.53C84.1661 45.0942 84.1263 44.6569 83.9877 44.2181C83.8336 43.7305 83.5899 43.3457 83.2565 43.0637C82.9214 42.7763 82.5315 42.5986 82.087 42.5305C81.6407 42.457 81.1737 42.4972 80.6861 42.6513C80.1768 42.8122 79.7651 43.0555 79.4509 43.3812C79.1367 43.7069 78.9374 44.0946 78.8531 44.5443C78.7687 44.994 78.8104 45.4843 78.9782 46.0153L75.6381 47.0705C75.294 45.9816 75.2418 44.9583 75.4815 44.0007C75.7212 43.043 76.216 42.2045 76.9659 41.4849C77.7158 40.7653 78.6704 40.2224 79.8298 39.8561C81.0218 39.4795 82.126 39.363 83.1427 39.5066C84.163 39.6431 85.0369 40.0045 85.7644 40.591C86.492 41.1775 87.0072 41.9502 87.3102 42.9092C87.5087 43.5376 87.5801 44.1974 87.5243 44.8883C87.4739 45.5776 87.2526 46.3953 86.8604 47.3415C86.4664 48.2823 85.8622 49.4534 85.0476 50.8548L83.37 54.0037L83.406 54.1174L90.395 51.9093L91.3039 54.7862L79.4388 58.5348ZM100.495 52.2846C99.0955 52.7208 97.7841 52.7568 96.5607 52.3925C95.3427 52.0265 94.2583 51.2817 93.3074 50.158C92.3619 49.0326 91.6043 47.5588 91.0346 45.7367C90.4612 43.9217 90.2407 42.2902 90.3731 40.8421C90.5109 39.3923 90.9757 38.1759 91.7675 37.1929C92.5629 36.2027 93.6569 35.4876 95.0493 35.0477C96.4416 34.6078 97.7451 34.5654 98.9597 34.9206C100.18 35.274 101.262 36.0044 102.208 37.1119C103.152 38.2139 103.908 39.6733 104.476 41.49C105.053 43.3158 105.275 44.9617 105.143 46.4277C105.015 47.8921 104.558 49.1239 103.772 50.1232C102.985 51.1225 101.893 51.843 100.495 52.2846ZM99.5733 49.3671C100.527 49.0658 101.137 48.3459 101.402 47.2072C101.668 46.0685 101.496 44.541 100.884 42.6248C100.485 41.3625 100.023 40.3525 99.498 39.5949C98.978 38.8356 98.4156 38.3191 97.8107 38.0454C97.2113 37.77 96.5946 37.7324 95.9607 37.9327C95.0126 38.2323 94.4039 38.946 94.1346 40.0738C93.8652 41.2017 94.0266 42.7119 94.6185 44.6044C95.0225 45.883 95.487 46.9101 96.0121 47.6857C96.5409 48.4541 97.1086 48.9779 97.7152 49.257C98.32 49.5307 98.9394 49.5674 99.5733 49.3671ZM116.251 47.3068C114.851 47.743 113.54 47.7789 112.316 47.4147C111.098 47.0487 110.014 46.3038 109.063 45.1801C108.118 44.0547 107.36 42.581 106.79 40.7589C106.217 38.9439 105.996 37.3123 106.129 35.8643C106.267 34.4145 106.731 33.1981 107.523 32.215C108.319 31.2248 109.413 30.5098 110.805 30.0699C112.197 29.63 113.501 29.5876 114.715 29.9427C115.935 30.2962 117.018 31.0266 117.964 32.134C118.908 33.2361 119.664 34.6954 120.232 36.5121C120.809 38.3379 121.031 39.9839 120.898 41.4499C120.771 42.9142 120.314 44.1461 119.527 45.1454C118.741 46.1447 117.649 46.8651 116.251 47.3068ZM115.329 44.3893C116.283 44.088 116.892 43.368 117.158 42.2293C117.424 41.0906 117.251 39.5632 116.64 37.647C116.241 36.3846 115.779 35.3746 115.254 34.617C114.734 33.8577 114.171 33.3412 113.567 33.0675C112.967 32.7922 112.35 32.7546 111.717 32.9549C110.768 33.2544 110.16 33.9681 109.89 35.096C109.621 36.2238 109.782 37.734 110.374 39.6266C110.778 40.9052 111.243 41.9323 111.768 42.7078C112.297 43.4763 112.864 44.0001 113.471 44.2791C114.076 44.5528 114.695 44.5895 115.329 44.3893ZM132.007 42.3289C130.607 42.7651 129.296 42.8011 128.072 42.4368C126.854 42.0708 125.77 41.326 124.819 40.2023C123.874 39.0769 123.116 37.6031 122.546 35.781C121.973 33.966 121.752 32.3345 121.885 30.8864C122.022 29.4367 122.487 28.2202 123.279 27.2372C124.075 26.247 125.168 25.5319 126.561 25.092C127.953 24.6521 129.257 24.6097 130.471 24.9649C131.691 25.3183 132.774 26.0488 133.72 27.1562C134.664 28.2582 135.42 29.7176 135.988 31.5343C136.565 33.3601 136.787 35.006 136.654 36.4721C136.527 37.9364 136.07 39.1682 135.283 40.1675C134.497 41.1668 133.404 41.8873 132.007 42.3289ZM131.085 39.4114C132.038 39.1101 132.648 38.3902 132.914 37.2515C133.18 36.1128 133.007 34.5853 132.396 32.6691C131.997 31.4068 131.535 30.3968 131.01 29.6392C130.49 28.8799 129.927 28.3634 129.322 28.0897C128.723 27.8143 128.106 27.7768 127.472 27.977C126.524 28.2766 125.915 28.9903 125.646 30.1181C125.377 31.246 125.538 32.7562 126.13 34.6487C126.534 35.9273 126.999 36.9544 127.524 37.73C128.052 38.4984 128.62 39.0222 129.227 39.3013C129.832 39.575 130.451 39.6117 131.085 39.4114ZM149.328 15.3876L154.252 30.9723L157.295 30.0106L152.372 14.4259L149.328 15.3876ZM144.946 19.3643L145.698 21.7443L151.854 19.7994L151.102 17.4194L144.946 19.3643ZM144.179 37.2504L144.945 39.6762L159.432 35.0995L158.665 32.6737L144.179 37.2504ZM142.849 33.0396L144.57 38.4862L147.636 37.5173L145.915 32.0707L142.849 33.0396ZM136.229 21.0108L139.375 30.9658L142.395 30.0114L139.25 20.0565L136.229 21.0108ZM139.085 30.0504L139.866 32.522L141.56 31.987C144.741 30.982 147.497 29.9855 150.428 28.43L149.38 26.0681C146.525 27.5488 143.845 28.5465 140.779 29.5154L139.085 30.0504ZM146.19 23.3005L146.949 25.7034L153.105 23.7585L152.346 21.3556L146.19 23.3005ZM170.998 8.5411L177.693 29.7326L180.577 28.8216L173.882 7.63009L170.998 8.5411ZM170.734 17.5847L171.508 20.0334L175.032 18.92L174.259 16.4713L170.734 17.5847ZM166.377 10.4039L172.638 30.2223L175.453 29.333L169.192 9.5146L166.377 10.4039ZM160.679 27.1042L161.467 29.5987L162.955 29.1287C165.678 28.2683 167.899 27.4911 170.303 26.1779L169.293 23.7786C166.921 25.0316 164.776 25.81 162.167 26.6343L160.679 27.1042ZM157.057 15.6388L161.055 28.2942L164.076 27.3399L160.851 17.1331L165.657 15.6148L164.883 13.1661L157.057 15.6388Z" fill="#105A49"/>
</svg>
