<svg width="169" height="87" viewBox="0 0 169 87" fill="none" xmlns="http://www.w3.org/2000/svg">
<g filter="url(#filter0_d_91_2)">
<path d="M15.1595 1.3396L162.956 40.1433L152.961 78.2142L5.16412 39.4105L15.1595 1.3396Z" fill="white"/>
<path d="M24.7673 16.0027L20.3348 32.8851L16.7655 31.948L20.3084 18.4536L20.2094 18.4276L15.707 19.8361L16.5381 16.6707L21.4122 15.1218L24.7673 16.0027ZM34.9486 18.4291C35.8169 18.657 36.614 19.022 37.3399 19.5239C38.0713 20.0273 38.6693 20.6807 39.1339 21.4841C39.604 22.2889 39.8847 23.2673 39.9758 24.4191C40.0739 25.5669 39.9252 26.9053 39.5296 28.4346C39.153 29.8689 38.6547 31.1068 38.0347 32.1483C37.4216 33.1857 36.7124 34.0187 35.907 34.6473C35.1017 35.2759 34.2217 35.6852 33.2672 35.8751C32.3141 36.0596 31.3155 36.0148 30.2713 35.7406C29.1448 35.4448 28.2071 34.9666 27.4582 34.3059C26.7109 33.6398 26.1722 32.861 25.8423 31.9696C25.5193 31.0741 25.427 30.1393 25.5653 29.1652L29.0852 30.0894C29.061 30.741 29.2239 31.2948 29.5741 31.751C29.9258 32.2016 30.4258 32.5121 31.0743 32.6823C32.1734 32.9709 33.1343 32.7121 33.9569 31.9059C34.7809 31.0943 35.415 29.8538 35.8591 28.1846L35.7437 28.1543C35.361 28.5825 34.9085 28.919 34.386 29.1637C33.8651 29.4028 33.3018 29.5457 32.6962 29.5924C32.0962 29.6404 31.4856 29.5829 30.8646 29.4199C29.8699 29.1587 29.0437 28.6921 28.386 28.0201C27.7283 27.3481 27.2816 26.5436 27.0459 25.6064C26.8103 24.6692 26.8302 23.6758 27.1058 22.6262C27.3976 21.4927 27.9234 20.5528 28.6832 19.8065C29.4431 19.0602 30.3613 18.5611 31.4378 18.3092C32.5213 18.0532 33.6916 18.0932 34.9486 18.4291ZM34.2375 21.2383C33.6825 21.0926 33.1532 21.0946 32.6498 21.2444C32.1519 21.3957 31.7181 21.6607 31.3484 22.0394C30.9843 22.4197 30.7328 22.8853 30.594 23.4363C30.4483 23.9913 30.4379 24.5232 30.5628 25.0318C30.6947 25.5364 30.9376 25.9761 31.2915 26.351C31.6523 26.7218 32.1075 26.9794 32.6571 27.1236C33.0692 27.2319 33.4714 27.2552 33.8635 27.1937C34.2556 27.1321 34.6162 27.0006 34.9452 26.7992C35.2811 26.5936 35.5701 26.3318 35.8123 26.0135C36.0545 25.6952 36.2282 25.3355 36.3335 24.9344C36.468 24.3998 36.47 23.8775 36.3396 23.3675C36.2092 22.8574 35.9622 22.4107 35.5988 22.0275C35.2353 21.6442 34.7816 21.3812 34.2375 21.2383ZM46.0903 39.8939C45.2235 39.6604 44.4236 39.2947 43.6908 38.7969C42.9635 38.3004 42.3655 37.647 41.8968 36.8367C41.4282 36.0263 41.1462 35.0418 41.051 33.883C40.9612 32.7257 41.1191 31.3749 41.5245 29.8307C41.9023 28.4143 42.397 27.1901 43.0086 26.1582C43.6272 25.1222 44.3384 24.2927 45.1423 23.6696C45.9517 23.0479 46.8302 22.6441 47.7778 22.4582C48.7269 22.2668 49.7235 22.3082 50.7676 22.5823C51.8942 22.8781 52.8312 23.3591 53.5786 24.0252C54.3274 24.6859 54.8647 25.4585 55.1906 26.343C55.5219 27.2289 55.6206 28.1506 55.4867 29.1082L51.9668 28.1841C51.9838 27.56 51.8165 27.0226 51.4648 26.572C51.1132 26.1213 50.6131 25.8109 49.9647 25.6406C48.8656 25.352 47.9047 25.6108 47.0821 26.417C46.265 27.2246 45.6353 28.4486 45.1929 30.0889L45.3083 30.1192C45.6924 29.6854 46.1449 29.349 46.6659 29.1098C47.1938 28.8666 47.7571 28.7237 48.3557 28.6811C48.9613 28.6345 49.5718 28.692 50.1873 28.8536C51.1875 29.1162 52.0157 29.5862 52.672 30.2637C53.3298 30.9358 53.7764 31.7403 54.0121 32.6775C54.2477 33.6146 54.2271 34.6108 53.95 35.6659C53.6499 36.809 53.1165 37.7557 52.3496 38.506C51.5883 39.2578 50.6659 39.7617 49.5825 40.0177C48.5059 40.2696 47.3419 40.2283 46.0903 39.8939ZM46.8097 37.0868C47.3593 37.2311 47.8857 37.2283 48.3891 37.0785C48.8926 36.9287 49.3271 36.661 49.6927 36.2752C50.0583 35.8895 50.3147 35.4164 50.4619 34.8559C50.609 34.2953 50.6174 33.76 50.487 33.2499C50.362 32.7413 50.1199 32.2988 49.7605 31.9225C49.4011 31.5462 48.9466 31.2859 48.397 31.1416C47.9849 31.0334 47.5827 31.01 47.1906 31.0716C46.804 31.1345 46.4427 31.2688 46.1068 31.4743C45.7764 31.6813 45.4893 31.9466 45.2457 32.2704C45.0036 32.5886 44.8291 32.9511 44.7223 33.3578C44.5795 33.9018 44.5725 34.4316 44.7015 34.9472C44.836 35.4642 45.0822 35.9136 45.4402 36.2955C45.8036 36.6787 46.2601 36.9425 46.8097 37.0868ZM61.5181 44.0942C60.1017 43.7164 58.9733 43.0471 58.1329 42.0863C57.298 41.127 56.7782 39.9184 56.5735 38.4607C56.3743 37.0044 56.5198 35.3537 57.0101 33.5087C57.4934 31.6676 58.1774 30.1701 59.062 29.016C59.9521 27.8633 60.9942 27.0825 62.1883 26.6734C63.3894 26.2603 64.6961 26.2392 66.1085 26.61C67.5208 26.9808 68.6459 27.6404 69.4837 28.5888C70.3269 29.5386 70.8531 30.7342 71.0621 32.1754C71.2726 33.6111 71.1334 35.2488 70.6446 37.0884C70.1584 38.9404 69.468 40.451 68.5736 41.6201C67.6847 42.7907 66.641 43.5888 65.4426 44.0143C64.2441 44.4398 62.9359 44.4664 61.5181 44.0942ZM62.295 41.1348C63.2623 41.3887 64.1621 41.1051 64.9945 40.2839C65.8269 39.4627 66.4958 38.0786 67.001 36.1318C67.3372 34.8513 67.4852 33.7505 67.4451 32.8295C67.4104 31.9098 67.2103 31.1729 66.8448 30.6187C66.4847 30.066 65.9831 29.7052 65.3402 29.5364C64.3784 29.2839 63.4828 29.5628 62.6533 30.373C61.8238 31.1832 61.1545 32.5466 60.6454 34.4631C60.3049 35.7601 60.1498 36.8766 60.1801 37.8127C60.2174 38.7448 60.4181 39.4906 60.7822 40.0503C61.1478 40.6045 61.6521 40.966 62.295 41.1348ZM81.4817 38.4268L80.7502 41.2131L73.0509 39.1917L73.7824 36.4054L81.4817 38.4268ZM81.8467 49.0349L92.4813 37.0235L92.5116 36.9081L84.3589 34.7676L85.1251 31.8495L96.9708 34.9596L96.1938 37.9189L85.5315 50.0023L81.8467 49.0349ZM101.144 54.4978C99.7274 54.1201 98.599 53.4508 97.7587 52.49C96.9238 51.5306 96.404 50.3221 96.1993 48.8643C96 47.4081 96.1456 45.7574 96.6359 43.9123C97.1192 42.0713 97.8032 40.5737 98.6878 39.4196C99.5778 38.267 100.62 37.4861 101.814 37.0771C103.015 36.664 104.322 36.6429 105.734 37.0137C107.147 37.3845 108.272 38.0441 109.109 38.9925C109.953 39.9423 110.479 41.1378 110.688 42.579C110.898 44.0148 110.759 45.6524 110.27 47.492C109.784 49.344 109.094 50.8546 108.199 52.0238C107.311 53.1944 106.267 53.9924 105.068 54.4179C103.87 54.8434 102.562 54.8701 101.144 54.4978ZM101.921 51.5385C102.888 51.7924 103.788 51.5088 104.62 50.6875C105.453 49.8663 106.122 48.4823 106.627 46.5354C106.963 45.2549 107.111 44.1542 107.071 43.2331C107.036 42.3135 106.836 41.5766 106.471 41.0224C106.11 40.4697 105.609 40.1089 104.966 39.9401C104.004 39.6876 103.109 39.9664 102.279 40.7767C101.45 41.5869 100.78 42.9502 100.271 44.8668C99.9307 46.1637 99.7756 47.2802 99.8059 48.2164C99.8432 49.1484 100.044 49.8943 100.408 50.454C100.774 51.0081 101.278 51.3696 101.921 51.5385ZM130.168 40.9527L126.017 56.7609L129.105 57.5715L133.255 41.7633L130.168 40.9527ZM124.34 41.9784L123.706 44.3926L129.951 46.0321L130.585 43.6179L124.34 41.9784ZM114.149 56.6968L113.503 59.1574L128.197 63.0153L128.843 60.5547L114.149 56.6968ZM115.27 52.4256L113.82 57.9503L116.93 58.767L118.381 53.2423L115.27 52.4256ZM116.089 38.7204L113.438 48.8181L116.502 49.6226L119.153 39.5248L116.089 38.7204ZM113.682 47.8896L113.024 50.3966L114.741 50.8476C117.968 51.6948 120.831 52.3222 124.14 52.5708L124.513 50.0138C121.309 49.7432 118.51 49.1573 115.4 48.3406L113.682 47.8896ZM123.292 45.9711L122.652 48.4085L128.897 50.048L129.536 47.6106L123.292 45.9711ZM152.149 46.7238L146.505 68.2193L149.43 68.9872L155.074 47.4917L152.149 46.7238ZM147.101 54.232L146.449 56.7158L150.024 57.6544L150.676 55.1705L147.101 54.232ZM147.246 45.8336L141.968 65.9363L144.824 66.6859L150.102 46.5832L147.246 45.8336ZM133.517 56.9186L132.853 59.4489L134.362 59.845C137.124 60.5703 139.417 61.0979 142.151 61.2698L142.578 58.7018C139.902 58.4957 137.673 58.0096 135.026 57.3148L133.517 56.9186ZM136.571 45.2888L133.2 58.1257L136.265 58.9302L138.983 48.5771L143.858 49.8569L144.51 47.3731L136.571 45.2888Z" fill="#105A49"/>
</g>
<defs>
<filter id="filter0_d_91_2" x="1.16412" y="1.3396" width="165.792" height="84.8746" filterUnits="userSpaceOnUse" color-interpolation-filters="sRGB">
<feFlood flood-opacity="0" result="BackgroundImageFix"/>
<feColorMatrix in="SourceAlpha" type="matrix" values="0 0 0 0 0 0 0 0 0 0 0 0 0 0 0 0 0 0 127 0" result="hardAlpha"/>
<feOffset dy="4"/>
<feGaussianBlur stdDeviation="2"/>
<feComposite in2="hardAlpha" operator="out"/>
<feColorMatrix type="matrix" values="0 0 0 0 0 0 0 0 0 0 0 0 0 0 0 0 0 0 0.25 0"/>
<feBlend mode="normal" in2="BackgroundImageFix" result="effect1_dropShadow_91_2"/>
<feBlend mode="normal" in="SourceGraphic" in2="effect1_dropShadow_91_2" result="shape"/>
</filter>
</defs>
</svg>
