<svg width="169" height="85" viewBox="0 0 169 85" fill="none" xmlns="http://www.w3.org/2000/svg">
<g filter="url(#filter0_d_91_2)">
<rect x="17.019" y="2.09045" width="144.805" height="39.3612" transform="rotate(14.7109 17.019 2.09045)" fill="white"/>
<path d="M44.8384 20.1374L40.406 37.0198L36.8366 36.0826L40.3795 22.5883L40.2806 22.5623L35.7782 23.9708L36.6092 20.8054L41.4833 19.2565L44.8384 20.1374ZM55.0198 22.5638C55.8881 22.7917 56.6851 23.1567 57.411 23.6586C58.1424 24.162 58.7404 24.8154 59.205 25.6188C59.6751 26.4236 59.9558 27.402 60.047 28.5538C60.1451 29.7015 59.9963 31.04 59.6007 32.5692C59.2241 34.0036 58.7258 35.2415 58.1058 36.283C57.4927 37.3204 56.7835 38.1534 55.9782 38.782C55.1728 39.4106 54.2929 39.8198 53.3383 40.0098C52.3853 40.1943 51.3866 40.1494 50.3425 39.8753C49.2159 39.5795 48.2782 39.1013 47.5294 38.4406C46.782 37.7744 46.2433 36.9957 45.9134 36.1042C45.5905 35.2088 45.4981 34.274 45.6364 33.2999L49.1563 34.2241C49.1321 34.8756 49.2951 35.4295 49.6453 35.8857C49.9969 36.3363 50.4969 36.6468 51.1454 36.817C52.2445 37.1056 53.2054 36.8468 54.028 36.0406C54.852 35.229 55.4861 33.9885 55.9302 32.3193L55.8148 32.289C55.4322 32.7172 54.9796 33.0537 54.4572 33.2984C53.9362 33.5375 53.3729 33.6804 52.7674 33.727C52.1673 33.7751 51.5568 33.7176 50.9358 33.5546C49.9411 33.2934 49.1149 32.8268 48.4571 32.1548C47.7994 31.4828 47.3527 30.6782 47.1171 29.7411C46.8814 28.8039 46.9014 27.8105 47.177 26.7609C47.4687 25.6273 47.9945 24.6874 48.7544 23.9412C49.5142 23.1949 50.4324 22.6958 51.509 22.4439C52.5925 22.1879 53.7627 22.2279 55.0198 22.5638ZM54.3086 25.373C53.7536 25.2273 53.2244 25.2293 52.7209 25.3791C52.223 25.5304 51.7892 25.7954 51.4196 26.1741C51.0554 26.5543 50.8039 27.0199 50.6651 27.5709C50.5194 28.126 50.509 28.6578 50.6339 29.1665C50.7658 29.671 51.0087 30.1108 51.3626 30.4857C51.7235 30.8565 52.1786 31.114 52.7282 31.2583C53.1404 31.3665 53.5425 31.3899 53.9346 31.3284C54.3267 31.2668 54.6873 31.1353 55.0163 30.9339C55.3522 30.7283 55.6413 30.4664 55.8834 30.1482C56.1256 29.8299 56.2993 29.4702 56.4047 29.069C56.5391 28.5345 56.5411 28.0122 56.4107 27.5022C56.2803 26.9921 56.0333 26.5454 55.6699 26.1622C55.3064 25.7789 54.8527 25.5158 54.3086 25.373ZM66.1615 44.0285C65.2946 43.7951 64.4948 43.4294 63.762 42.9315C63.0346 42.4351 62.4366 41.7817 61.968 40.9714C61.4993 40.161 61.2173 39.1765 61.1221 38.0177C61.0324 36.8604 61.1902 35.5096 61.5957 33.9654C61.9734 32.5489 62.4681 31.3248 63.0797 30.2929C63.6983 29.2569 64.4096 28.4274 65.2135 27.8043C66.0229 27.1826 66.9014 26.7788 67.849 26.5929C68.798 26.4015 69.7946 26.4429 70.8387 26.717C71.9653 27.0128 72.9023 27.4938 73.6497 28.1599C74.3985 28.8206 74.9358 29.5932 75.2617 30.4777C75.593 31.3636 75.6918 32.2853 75.5578 33.2429L72.0379 32.3188C72.0549 31.6947 71.8876 31.1573 71.536 30.7067C71.1843 30.256 70.6843 29.9455 70.0358 29.7753C68.9367 29.4867 67.9758 29.7455 67.1532 30.5517C66.3361 31.3593 65.7064 32.5833 65.264 34.2235L65.3794 34.2538C65.7635 33.8201 66.216 33.4837 66.737 33.2445C67.265 33.0013 67.8282 32.8584 68.4269 32.8158C69.0324 32.7692 69.6429 32.8267 70.2584 32.9883C71.2586 33.2509 72.0869 33.7209 72.7432 34.3984C73.4009 35.0704 73.8476 35.875 74.0832 36.8122C74.3189 37.7493 74.2982 38.7455 74.0212 39.8006C73.721 40.9437 73.1876 41.8904 72.4208 42.6407C71.6595 43.3925 70.7371 43.8964 69.6536 44.1524C68.5771 44.4043 67.413 44.363 66.1615 44.0285ZM66.8808 41.2215C67.4304 41.3658 67.9569 41.363 68.4603 41.2132C68.9637 41.0634 69.3982 40.7956 69.7638 40.4099C70.1294 40.0242 70.3858 39.5511 70.533 38.9906C70.6802 38.43 70.6885 37.8947 70.5581 37.3846C70.4332 36.876 70.191 36.4335 69.8316 36.0572C69.4722 35.6809 69.0177 35.4206 68.4682 35.2763C68.056 35.1681 67.6539 35.1447 67.2617 35.2063C66.8751 35.2692 66.5138 35.4035 66.1779 35.609C65.8475 35.816 65.5605 36.0813 65.3169 36.4051C65.0747 36.7233 64.9002 37.0858 64.7934 37.4925C64.6506 38.0365 64.6437 38.5663 64.7727 39.0819C64.9071 39.5989 65.1534 40.0483 65.5113 40.4301C65.8748 40.8134 66.3313 41.0772 66.8808 41.2215ZM81.5892 48.2289C80.1728 47.8511 79.0444 47.1818 78.204 46.221C77.3691 45.2616 76.8493 44.0531 76.6446 42.5954C76.4454 41.1391 76.5909 39.4884 77.0812 37.6433C77.5646 35.8023 78.2485 34.3048 79.1331 33.1507C80.0232 31.998 81.0653 31.2171 82.2594 30.8081C83.4605 30.395 84.7673 30.3739 86.1796 30.7447C87.592 31.1155 88.717 31.7751 89.5548 32.7235C90.3981 33.6733 90.9242 34.8688 91.1333 36.3101C91.3438 37.7458 91.2046 39.3835 90.7157 41.2231C90.2295 43.0751 89.5392 44.5856 88.6448 45.7548C87.7559 46.9254 86.7122 47.7234 85.5137 48.149C84.3152 48.5745 83.0071 48.6011 81.5892 48.2289ZM82.3662 45.2695C83.3334 45.5234 84.2332 45.2398 85.0656 44.4186C85.898 43.5974 86.5669 42.2133 87.0722 40.2664C87.4083 38.986 87.5564 37.8852 87.5162 36.9641C87.4816 36.0445 87.2815 35.3076 86.9159 34.7534C86.5558 34.2007 86.0543 33.8399 85.4113 33.6711C84.4496 33.4186 83.5539 33.6975 82.7244 34.5077C81.8949 35.3179 81.2256 36.6813 80.7165 38.5978C80.376 39.8947 80.2209 41.0113 80.2513 41.9474C80.2885 42.8795 80.4892 43.6253 80.8533 44.185C81.2189 44.7392 81.7232 45.1007 82.3662 45.2695ZM110.613 34.6837L106.463 50.4919L109.55 51.3025L113.701 35.4943L110.613 34.6837ZM104.786 35.7095L104.152 38.1237L110.396 39.7631L111.03 37.3489L104.786 35.7095ZM94.594 50.4279L93.948 52.8885L108.642 56.7463L109.288 54.2857L94.594 50.4279ZM95.7154 46.1566L94.2649 51.6814L97.3755 52.4981L98.826 46.9733L95.7154 46.1566ZM96.5346 32.4514L93.8834 42.5492L96.9476 43.3536L99.5987 33.2559L96.5346 32.4514ZM94.1272 41.6206L93.469 44.1277L95.1868 44.5787C98.4134 45.4258 101.276 46.0533 104.585 46.3018L104.959 43.7449C101.755 43.4743 98.9556 42.8883 95.845 42.0716L94.1272 41.6206ZM103.737 39.7022L103.097 42.1396L109.342 43.779L109.982 41.3416L103.737 39.7022ZM132.594 40.4548L126.951 61.9503L129.876 62.7182L135.519 41.2227L132.594 40.4548ZM127.546 47.963L126.894 50.4468L130.469 51.3854L131.121 48.9016L127.546 47.963ZM127.692 39.5646L122.414 59.6673L125.269 60.417L130.547 40.3143L127.692 39.5646ZM113.963 50.6497L113.298 53.1799L114.807 53.576C117.57 54.3013 119.863 54.8289 122.597 55.0008L123.023 52.4329C120.348 52.2267 118.118 51.7406 115.472 51.0458L113.963 50.6497ZM117.016 39.0198L113.646 51.8567L116.71 52.6612L119.428 42.3081L124.303 43.588L124.955 41.1042L117.016 39.0198Z" fill="#194546"/>
</g>
<defs>
<filter id="filter0_d_91_2" x="3.02356" y="2.09045" width="158.054" height="82.8428" filterUnits="userSpaceOnUse" color-interpolation-filters="sRGB">
<feFlood flood-opacity="0" result="BackgroundImageFix"/>
<feColorMatrix in="SourceAlpha" type="matrix" values="0 0 0 0 0 0 0 0 0 0 0 0 0 0 0 0 0 0 127 0" result="hardAlpha"/>
<feOffset dy="4"/>
<feGaussianBlur stdDeviation="2"/>
<feComposite in2="hardAlpha" operator="out"/>
<feColorMatrix type="matrix" values="0 0 0 0 0 0 0 0 0 0 0 0 0 0 0 0 0 0 0.25 0"/>
<feBlend mode="normal" in2="BackgroundImageFix" result="effect1_dropShadow_91_2"/>
<feBlend mode="normal" in="SourceGraphic" in2="effect1_dropShadow_91_2" result="shape"/>
</filter>
</defs>
</svg>
