<svg width="169" height="78" viewBox="0 0 169 78" fill="none" xmlns="http://www.w3.org/2000/svg">
<g filter="url(#filter0_d_115_12)">
<rect x="7.11488" y="31.2744" width="144.805" height="39.3612" transform="rotate(-11.5398 7.11488 31.2744)" fill="white"/>
<path d="M36.1218 53.7718L35.5898 51.1665L40.5265 44.287C40.9419 43.6803 41.2841 43.1407 41.5529 42.6683C41.8274 42.1947 42.0173 41.7471 42.1225 41.3255C42.2267 40.8983 42.2327 40.4592 42.1407 40.0083C42.0384 39.5073 41.8361 39.0991 41.534 38.7839C41.2308 38.4631 40.8616 38.2456 40.4266 38.1314C39.9904 38.0117 39.5218 38.003 39.0208 38.1053C38.4975 38.2122 38.0626 38.4111 37.7161 38.7022C37.3696 38.9934 37.1309 39.3581 37.0001 39.7966C36.8692 40.235 36.8595 40.727 36.9709 41.2726L33.5389 41.9733C33.3104 40.8544 33.3653 39.8312 33.7037 38.9039C34.0421 37.9765 34.6217 37.1942 35.4426 36.5569C36.2636 35.9195 37.2697 35.4792 38.461 35.236C39.6857 34.9859 40.7961 34.9854 41.7922 35.2343C42.7927 35.4766 43.6241 35.9273 44.2864 36.5866C44.9488 37.2458 45.3805 38.0681 45.5817 39.0535C45.7135 39.6992 45.7157 40.3628 45.588 41.0441C45.4659 41.7244 45.1604 42.5145 44.6715 43.4146C44.1815 44.3091 43.4583 45.4107 42.5019 46.7194L40.5046 49.6759L40.5285 49.7928L47.7099 48.3265L48.3135 51.2826L36.1218 53.7718ZM57.7155 49.7543C56.2781 50.042 54.9701 49.9409 53.7914 49.4508C52.6183 48.9597 51.6176 48.1057 50.7892 46.8888C49.9664 45.6709 49.3669 44.126 48.9905 42.2544C48.6097 40.3895 48.5608 38.7438 48.8437 37.3175C49.1321 35.89 49.7214 34.7288 50.6115 33.8338C51.506 32.9321 52.6686 32.3351 54.0993 32.043C55.53 31.7509 56.8308 31.8449 58.0016 32.3249C59.178 32.8038 60.1787 33.6433 61.0036 34.8434C61.8275 36.038 62.427 37.5683 62.8022 39.4344C63.1852 41.3105 63.2342 42.9706 62.9492 44.4148C62.6697 45.8578 62.0866 47.0352 61.2 47.9469C60.3133 48.8586 59.1518 49.4611 57.7155 49.7543ZM57.1035 46.7565C58.0832 46.5565 58.7648 45.9041 59.1482 44.7994C59.5315 43.6947 59.5192 42.1576 59.1113 40.188C58.8464 38.8909 58.4923 37.8382 58.0489 37.0299C57.6111 36.2204 57.1057 35.648 56.5327 35.3127C55.9653 34.9762 55.3559 34.8745 54.7046 35.0074C53.7304 35.2064 53.0504 35.8526 52.6648 36.9462C52.2792 38.0397 52.282 39.5585 52.6731 41.5025C52.9413 42.8163 53.2961 43.8863 53.7373 44.7125C54.183 45.5319 54.6929 46.1121 55.267 46.453C55.84 46.7883 56.4521 46.8895 57.1035 46.7565ZM71.0713 28.8213L74.5631 45.923L70.9473 46.6613L68.1563 32.9916L68.0561 33.0121L64.641 36.2667L63.9863 33.0601L67.6727 29.5152L71.0713 28.8213ZM85.4098 44.0998C83.9724 44.3875 82.6643 44.2864 81.4857 43.7963C80.3126 43.3052 79.3118 42.4512 78.4835 41.2343C77.6607 40.0164 77.0611 38.4715 76.6848 36.5999C76.304 34.735 76.2551 33.0893 76.5379 31.663C76.8264 30.2355 77.4157 29.0743 78.3057 28.1793C79.2003 27.2776 80.3629 26.6806 81.7936 26.3885C83.2243 26.0964 84.5251 26.1904 85.6959 26.6704C86.8723 27.1493 87.873 27.9888 88.6979 29.1889C89.5217 30.3835 90.1212 31.9138 90.4964 33.7799C90.8795 35.656 90.9285 37.3161 90.6434 38.7603C90.364 40.2033 89.7809 41.3807 88.8942 42.2924C88.0076 43.2041 86.8461 43.8066 85.4098 44.0998ZM84.7977 41.102C85.7775 40.902 86.4591 40.2496 86.8424 39.1449C87.2258 38.0402 87.2135 36.5031 86.8055 34.5335C86.5407 33.2364 86.1866 32.1837 85.7432 31.3754C85.3054 30.5659 84.8 29.9935 84.227 29.6582C83.6595 29.3217 83.0502 29.22 82.3988 29.3529C81.4246 29.5519 80.7447 30.1981 80.3591 31.2917C79.9735 32.3852 79.9762 33.904 80.3673 35.848C80.6356 37.1618 80.9903 38.2318 81.4316 39.058C81.8772 39.8774 82.3871 40.4576 82.9612 40.7985C83.5342 41.1338 84.1464 41.235 84.7977 41.102ZM105.449 19.1143L108.719 35.128L111.847 34.4894L108.577 18.4758L105.449 19.1143ZM100.677 22.6118L101.176 25.0574L107.501 23.7659L107.002 21.3203L100.677 22.6118ZM98.046 40.3201L98.5549 42.8126L113.44 39.7735L112.931 37.2809L98.046 40.3201ZM97.1626 35.9933L98.3053 41.5899L101.456 40.9465L100.314 35.35L97.1626 35.9933ZM91.8355 23.3392L93.924 33.5682L97.0279 32.9344L94.9394 22.7055L91.8355 23.3392ZM93.7319 32.6276L94.2505 35.1672L95.9906 34.8119C99.2591 34.1445 102.104 33.4412 105.182 32.2004L104.386 29.7419C101.392 30.9165 98.623 31.6289 95.472 32.2723L93.7319 32.6276ZM101.502 26.6564L102.007 29.1255L108.332 27.8339L107.828 25.3649L101.502 26.6564ZM127.716 14.568L132.162 36.3428L135.125 35.7378L130.679 13.9631L127.716 14.568ZM126.51 23.5346L127.023 26.0507L130.645 25.3114L130.131 22.7953L126.51 23.5346ZM122.925 15.9381L127.083 36.302L129.976 35.7114L125.818 15.3475L122.925 15.9381ZM115.515 31.9522L116.039 34.5153L117.567 34.2032C120.365 33.6319 122.655 33.0908 125.183 32.0358L124.43 29.5442C121.939 30.5426 119.724 31.0928 117.044 31.6401L115.515 31.9522ZM113.11 20.1713L115.765 33.175L118.869 32.5412L116.728 22.0536L121.666 21.0453L121.152 18.5293L113.11 20.1713Z" fill="#105A49"/>
</g>
<defs>
<filter id="filter0_d_115_12" x="3.11488" y="2.30615" width="157.752" height="75.5337" filterUnits="userSpaceOnUse" color-interpolation-filters="sRGB">
<feFlood flood-opacity="0" result="BackgroundImageFix"/>
<feColorMatrix in="SourceAlpha" type="matrix" values="0 0 0 0 0 0 0 0 0 0 0 0 0 0 0 0 0 0 127 0" result="hardAlpha"/>
<feOffset dy="4"/>
<feGaussianBlur stdDeviation="2"/>
<feComposite in2="hardAlpha" operator="out"/>
<feColorMatrix type="matrix" values="0 0 0 0 0 0 0 0 0 0 0 0 0 0 0 0 0 0 0.25 0"/>
<feBlend mode="normal" in2="BackgroundImageFix" result="effect1_dropShadow_115_12"/>
<feBlend mode="normal" in="SourceGraphic" in2="effect1_dropShadow_115_12" result="shape"/>
</filter>
</defs>
</svg>
