<svg width="165" height="52" viewBox="0 0 165 52" fill="none" xmlns="http://www.w3.org/2000/svg">
<g filter="url(#filter0_d_115_7)">
<rect x="8.22189" y="0.964355" width="144.805" height="39.3612" transform="rotate(1.40106 8.22189 0.964355)" fill="white"/>
<path d="M39.437 12.1219L39.0102 29.5712L35.321 29.481L35.6621 15.5334L35.5599 15.5309L31.5026 17.9381L31.5827 14.6664L35.9693 12.0371L39.437 12.1219ZM49.9035 12.1392C50.8009 12.1611 51.6606 12.3328 52.4826 12.6541C53.3102 12.9756 54.0425 13.4737 54.6796 14.1486C55.3224 14.8236 55.8208 15.7111 56.1746 16.8109C56.5344 17.9053 56.6978 19.2421 56.6648 20.8213C56.6286 22.3038 56.4286 23.6232 56.065 24.7794C55.7072 25.9301 55.2088 26.904 54.5698 27.7011C53.9308 28.4982 53.1688 29.0991 52.2836 29.5037C51.3986 29.9026 50.4165 30.0889 49.3372 30.0625C48.1728 30.034 47.1502 29.7845 46.2694 29.314C45.3887 28.8377 44.6853 28.2039 44.159 27.4124C43.6386 26.6153 43.3335 25.7269 43.2438 24.7471L46.8819 24.8361C47.0083 25.4758 47.2945 25.9772 47.7403 26.3405C48.1862 26.6981 48.7443 26.8851 49.4145 26.9015C50.5506 26.9293 51.426 26.4562 52.0409 25.4823C52.656 24.5028 52.9875 23.1497 53.0354 21.4231L52.9161 21.4201C52.6423 21.925 52.2794 22.3566 51.8273 22.7149C51.3753 23.0676 50.8601 23.3364 50.2815 23.5211C49.7087 23.706 49.1013 23.7906 48.4595 23.7749C47.4314 23.7498 46.5199 23.486 45.7251 22.9834C44.9304 22.4809 44.3105 21.8008 43.8654 20.943C43.4203 20.0853 43.2111 19.114 43.2376 18.0291C43.2605 16.8588 43.5558 15.8231 44.1235 14.922C44.6911 14.0208 45.4698 13.3237 46.4594 12.8307C47.4548 12.3322 48.6029 12.1017 49.9035 12.1392ZM49.8582 15.0367C49.2845 15.0226 48.77 15.1464 48.3146 15.4081C47.8648 15.6699 47.5037 16.0277 47.2312 16.4814C46.9643 16.9352 46.8268 17.4462 46.8186 18.0144C46.8045 18.588 46.9169 19.108 47.1555 19.5742C47.4 20.0349 47.7376 20.4069 48.1683 20.6902C48.6048 20.968 49.1071 21.1139 49.6751 21.1277C50.1011 21.1382 50.4978 21.0683 50.8653 20.9181C51.2327 20.768 51.5533 20.557 51.827 20.2852C52.1066 20.0079 52.3276 19.6865 52.49 19.321C52.6524 18.9556 52.7387 18.5655 52.7488 18.1509C52.7566 17.5998 52.6383 17.091 52.394 16.6247C52.1496 16.1584 51.8065 15.7805 51.3646 15.4912C50.9226 15.2019 50.4205 15.0504 49.8582 15.0367ZM65.5 30.4578C64.1879 30.4257 63.0258 30.1842 62.0138 29.7331C61.0077 29.2766 60.224 28.6692 59.6628 27.9109C59.1016 27.1526 58.8326 26.3021 58.8556 25.3592C58.8734 24.6321 59.0545 23.9687 59.3988 23.369C59.7489 22.7638 60.2158 22.2665 60.7993 21.8772C61.383 21.4823 62.0313 21.2367 62.744 21.1405L62.747 21.0212C61.82 20.811 61.0756 20.3409 60.5137 19.6111C59.952 18.8755 59.6828 18.0306 59.7061 17.0763C59.7282 16.1732 60.012 15.3759 60.5575 14.6845C61.1031 13.9874 61.8409 13.4485 62.771 13.0677C63.7068 12.6814 64.7627 12.5026 65.9385 12.5313C67.1142 12.5601 68.1572 12.7902 69.0674 13.2217C69.9833 13.6533 70.6966 14.2306 71.2075 14.9535C71.7185 15.6708 71.9659 16.4782 71.9496 17.3758C71.9205 18.3356 71.6046 19.1662 71.0021 19.8676C70.3995 20.569 69.6387 21.0022 68.7196 21.1673L68.7167 21.2866C69.4126 21.4172 70.0395 21.694 70.5975 22.1169C71.1614 22.5342 71.6033 23.0537 71.9235 23.6753C72.2494 24.2914 72.4063 24.9631 72.3942 25.6903C72.3655 26.633 72.0523 27.4694 71.4547 28.1993C70.8572 28.9292 70.0419 29.4975 69.0089 29.9042C67.9818 30.3054 66.8121 30.4899 65.5 30.4578ZM65.5663 27.7484C66.1513 27.7627 66.6651 27.6701 67.1076 27.4707C67.5503 27.2655 67.8983 26.9785 68.1517 26.6096C68.4109 26.2351 68.5466 25.8008 68.5587 25.3066C68.5711 24.8011 68.4542 24.3521 68.208 23.9596C67.962 23.5614 67.623 23.2462 67.191 23.014C66.7592 22.7761 66.2593 22.6502 65.6913 22.6363C65.129 22.6225 64.6235 22.7238 64.1749 22.9402C63.7264 23.1509 63.3696 23.4491 63.1044 23.8348C62.845 24.2149 62.7092 24.6577 62.6968 25.1633C62.6847 25.6574 62.7962 26.0978 63.0311 26.4843C63.2662 26.8652 63.6026 27.169 64.0404 27.3956C64.4783 27.6166 64.9869 27.7342 65.5663 27.7484ZM65.757 19.9524C66.2454 19.9644 66.6824 19.8756 67.0678 19.6861C67.4533 19.4966 67.7582 19.2284 67.9827 18.8815C68.2071 18.5346 68.325 18.1311 68.3362 17.6711C68.3473 17.2166 68.2491 16.8164 68.0416 16.4703C67.8343 16.1185 67.5455 15.8415 67.1753 15.6392C66.8053 15.4313 66.3704 15.3212 65.8705 15.3089C65.3764 15.2968 64.9366 15.3855 64.5511 15.575C64.1658 15.7589 63.861 16.0214 63.6367 16.3626C63.4182 16.6982 63.3034 17.0933 63.2923 17.5477C63.281 18.0078 63.379 18.4166 63.5863 18.774C63.7935 19.1314 64.085 19.4142 64.4607 19.6223C64.8364 19.8304 65.2685 19.9405 65.757 19.9524ZM81.6912 30.9987C80.2259 30.9572 78.9737 30.5657 77.9347 29.8242C76.9014 29.0828 76.1173 28.0263 75.5825 26.6549C75.0534 25.2836 74.815 23.6438 74.8674 21.7354C74.9139 19.8325 75.2347 18.2177 75.8298 16.891C76.4306 15.5644 77.265 14.5646 78.3329 13.8916C79.4066 13.2131 80.6734 12.8917 82.1332 12.9274C83.593 12.9631 84.8397 13.346 85.8733 14.076C86.9125 14.8062 87.6998 15.8485 88.235 17.2029C88.7704 18.5516 89.012 20.1773 88.9597 22.08C88.9129 23.9942 88.5889 25.6232 87.9877 26.9668C87.3922 28.3106 86.5602 29.3275 85.4919 30.0175C84.4236 30.7075 83.1567 31.0346 81.6912 30.9987ZM81.766 27.94C82.7657 27.9644 83.5761 27.4813 84.1971 26.4905C84.8181 25.4997 85.1503 23.9988 85.1938 21.9879C85.2262 20.6645 85.1168 19.5592 84.8657 18.6721C84.6203 17.7852 84.2559 17.1141 83.7726 16.659C83.2949 16.204 82.7238 15.9684 82.0592 15.9521C81.0652 15.9278 80.2578 16.4054 79.6371 17.3848C79.0164 18.3642 78.6789 19.845 78.6248 21.8273C78.592 23.1678 78.6981 24.29 78.9431 25.194C79.1939 26.0925 79.561 26.7721 80.0441 27.2329C80.5275 27.688 81.1014 27.9237 81.766 27.94ZM106.817 11.1356L106.418 27.4747L109.609 27.5528L110.008 11.2137L106.817 11.1356ZM101.382 13.4754L101.321 15.9707L107.776 16.1285L107.837 13.6333L101.382 13.4754ZM94.8529 30.1448L94.7907 32.688L109.978 33.0595L110.04 30.5162L94.8529 30.1448ZM94.9609 25.7301L94.8212 31.4404L98.0363 31.519L98.1759 25.8087L94.9609 25.7301ZM92.6029 12.2044L92.3476 22.6413L95.5147 22.7187L95.77 12.2819L92.6029 12.2044ZM92.3711 21.6816L92.3077 24.2728L94.0832 24.3162C97.4182 24.3978 100.348 24.3494 103.626 23.8294L103.401 21.2551C100.22 21.7295 97.3616 21.8036 94.1466 21.725L92.3711 21.6816ZM101.282 17.6022L101.22 20.1215L107.674 20.2793L107.736 17.7601L101.282 17.6022ZM129.537 11.6913L128.993 33.9087L132.016 33.9826L132.56 11.7652L129.537 11.6913ZM126.353 20.16L126.29 22.7272L129.985 22.8176L130.048 20.2503L126.353 20.16ZM124.561 11.9537L124.053 32.7315L127.004 32.8037L127.512 12.0259L124.561 11.9537ZM113.752 25.9016L113.688 28.5168L115.248 28.555C118.103 28.6248 120.456 28.6103 123.156 28.1482L122.98 25.5511C120.329 25.9664 118.047 26.0067 115.312 25.9398L113.752 25.9016ZM114.046 13.8812L113.722 27.1492L116.889 27.2267L117.151 16.5259L122.189 16.6491L122.252 14.0819L114.046 13.8812Z" fill="#105A49"/>
</g>
<defs>
<filter id="filter0_d_115_7" x="3.25949" y="0.964355" width="153.724" height="50.8899" filterUnits="userSpaceOnUse" color-interpolation-filters="sRGB">
<feFlood flood-opacity="0" result="BackgroundImageFix"/>
<feColorMatrix in="SourceAlpha" type="matrix" values="0 0 0 0 0 0 0 0 0 0 0 0 0 0 0 0 0 0 127 0" result="hardAlpha"/>
<feOffset dy="4"/>
<feGaussianBlur stdDeviation="2"/>
<feComposite in2="hardAlpha" operator="out"/>
<feColorMatrix type="matrix" values="0 0 0 0 0 0 0 0 0 0 0 0 0 0 0 0 0 0 0.25 0"/>
<feBlend mode="normal" in2="BackgroundImageFix" result="effect1_dropShadow_115_7"/>
<feBlend mode="normal" in="SourceGraphic" in2="effect1_dropShadow_115_7" result="shape"/>
</filter>
</defs>
</svg>
