<svg width="235" height="113" viewBox="0 0 235 113" fill="none" xmlns="http://www.w3.org/2000/svg">
<path d="M17.4034 1.50879L231.561 74.973L217.885 111.915L110.806 75.183L3.72711 38.4509L17.4034 1.50879Z" fill="white"/>
<path d="M51.3633 25.6314L45.3034 42.0002L41.8127 40.8028L46.6565 27.7189L46.5597 27.6857L41.9089 28.7386L43.0452 25.6694L48.0822 24.5059L51.3633 25.6314ZM61.3437 28.8029C62.1929 29.0942 62.9575 29.5156 63.6376 30.0672C64.3231 30.6206 64.8605 31.3123 65.2497 32.1425C65.6443 32.9744 65.8323 33.9637 65.8136 35.1102C65.8023 36.2533 65.5252 37.5665 64.9821 39.0496C64.4673 40.4403 63.8491 41.6274 63.1277 42.611C62.4135 43.591 61.6225 44.3616 60.7546 44.9226C59.8867 45.4836 58.965 45.822 57.9894 45.9377C57.0158 46.0481 56.0184 45.9281 54.9972 45.5778C53.8955 45.1999 53.0006 44.6557 52.3127 43.9453C51.6267 43.2296 51.1609 42.4182 50.9152 41.5113C50.6768 40.6008 50.6736 39.6689 50.9054 38.7155L54.3477 39.8964C54.2611 40.5392 54.3716 41.0996 54.6793 41.5775C54.9889 42.05 55.4608 42.395 56.095 42.6126C57.1699 42.9813 58.1584 42.7979 59.0606 42.0625C59.9647 41.3218 60.7193 40.1424 61.3244 38.5245L61.2115 38.4857C60.7867 38.8805 60.3007 39.1791 59.7532 39.3817C59.2078 39.5789 58.6291 39.6776 58.0173 39.6779C57.4108 39.6801 56.8039 39.577 56.1966 39.3686C55.2238 39.0349 54.4397 38.5107 53.8442 37.796C53.2487 37.0813 52.8776 36.2514 52.7308 35.3063C52.584 34.3612 52.699 33.3798 53.0758 32.3621C53.4768 31.2626 54.094 30.3724 54.9276 29.6915C55.7611 29.0106 56.7298 28.5863 57.8337 28.4185C58.945 28.2472 60.115 28.3753 61.3437 28.8029ZM60.3619 31.5286C59.8191 31.3424 59.288 31.3044 58.7688 31.4145C58.2549 31.5265 57.7944 31.7558 57.3874 32.1026C56.9858 32.4513 56.689 32.8929 56.4972 33.4276C56.2979 33.9658 56.2366 34.4912 56.3133 35.004C56.3974 35.5132 56.599 35.9667 56.9181 36.3644C57.2446 36.7586 57.6766 37.0479 58.214 37.2323C58.6171 37.3706 59.0182 37.4241 59.4174 37.3929C59.8166 37.3617 60.1908 37.2589 60.5401 37.0844C60.8967 36.9065 61.2117 36.6693 61.485 36.3727C61.7583 36.0761 61.967 35.7333 62.111 35.3444C62.2969 34.8257 62.3489 34.309 62.2668 33.7945C62.1848 33.2799 61.9798 32.8193 61.6519 32.4125C61.3239 32.0058 60.8939 31.7112 60.3619 31.5286ZM70.2901 50.8238C69.0486 50.398 68.0181 49.8193 67.1987 49.0878C66.3866 48.3528 65.8356 47.5423 65.5459 46.6562C65.2561 45.7702 65.2749 44.8849 65.6024 44.0004C65.8549 43.3183 66.2425 42.7457 66.7653 42.2825C67.2954 41.8158 67.9019 41.4864 68.5848 41.2943C69.2696 41.0969 69.9677 41.0601 70.6789 41.184L70.7204 41.0721C69.9041 40.5939 69.3461 39.9251 69.0465 39.0656C68.7488 38.2009 68.7657 37.3209 69.0971 36.4257C69.4107 35.5785 69.9397 34.9103 70.6842 34.421C71.4306 33.9264 72.3091 33.6393 73.3198 33.5597C74.3379 33.4765 75.4031 33.6258 76.5156 34.0074C77.6281 34.389 78.5487 34.921 79.2773 35.6033C80.0113 36.2875 80.5049 37.0483 80.7582 37.8858C81.0134 38.718 80.9879 39.5559 80.6816 40.3997C80.3428 41.2983 79.7724 41.9884 78.9703 42.4699C78.1682 42.9514 77.3019 43.1316 76.3715 43.0106L76.3301 43.1225C76.9517 43.4559 77.4602 43.9065 77.8556 44.4745C78.2584 45.0391 78.5118 45.6634 78.6158 46.3477C78.7272 47.0284 78.6594 47.7108 78.4123 48.3946C78.0794 49.2773 77.5097 49.9736 76.7031 50.4836C75.8965 50.9936 74.9346 51.2851 73.8172 51.3582C72.7073 51.4278 71.5316 51.2497 70.2901 50.8238ZM71.231 48.2822C71.7846 48.4721 72.3048 48.5394 72.7916 48.4842C73.2804 48.4237 73.7054 48.2573 74.0667 47.9849C74.4353 47.709 74.7055 47.3393 74.8771 46.8757C75.0526 46.4015 75.0866 45.9417 74.9789 45.4964C74.8731 45.0458 74.6518 44.6456 74.3149 44.2958C73.98 43.9407 73.5438 43.671 73.0064 43.4866C72.4743 43.3041 71.9592 43.2475 71.4611 43.3169C70.965 43.3809 70.5279 43.5552 70.15 43.8399C69.7794 44.1211 69.5063 44.4988 69.3307 44.9731C69.1591 45.4366 69.1227 45.8866 69.2217 46.3228C69.3226 46.7538 69.5452 47.1424 69.8894 47.4887C70.2356 47.8296 70.6828 48.0941 71.231 48.2822ZM73.9384 40.969C74.4006 41.1275 74.8463 41.1753 75.2754 41.1123C75.7045 41.0494 76.0824 40.8877 76.4089 40.6274C76.7354 40.3671 76.9786 40.0212 77.1384 39.5896C77.2962 39.1633 77.3321 38.7553 77.2463 38.3655C77.1624 37.9704 76.9766 37.6215 76.689 37.3186C76.4033 37.0104 76.024 36.7752 75.551 36.613C75.0835 36.4526 74.6351 36.4039 74.206 36.4669C73.7788 36.5245 73.403 36.6808 73.0784 36.9358C72.7612 37.1873 72.5237 37.5262 72.3659 37.9524C72.2061 38.384 72.1672 38.8 72.2491 39.2005C72.331 39.6009 72.5175 39.9561 72.8086 40.2661C73.0996 40.5761 73.4762 40.8104 73.9384 40.969ZM85.5628 56.2161C84.1782 55.7351 83.1104 54.9875 82.3593 53.9732C81.6136 52.9607 81.2077 51.7256 81.1417 50.2677C81.0811 48.8117 81.3849 47.1895 82.0531 45.401C82.7139 43.616 83.5431 42.186 84.5407 41.111C85.5437 40.0379 86.6636 39.3441 87.9005 39.0298C89.1448 38.712 90.4575 38.79 91.8387 39.2638C93.2199 39.7376 94.2854 40.4754 95.035 41.4772C95.7901 42.4808 96.2035 43.7036 96.2754 45.1455C96.3493 46.582 96.0531 48.1918 95.3869 49.975C94.7222 51.7707 93.8853 53.2131 92.8764 54.3022C91.8729 55.3932 90.7498 56.1038 89.507 56.4341C88.2641 56.7644 86.9494 56.6918 85.5628 56.2161ZM86.6251 53.3468C87.571 53.6712 88.5007 53.4587 89.4141 52.7092C90.3276 51.9596 91.1308 50.6408 91.8237 48.7527C92.2833 47.5112 92.537 46.4332 92.5848 45.5188C92.638 44.6063 92.5077 43.862 92.194 43.286C91.8857 42.7118 91.4171 42.3169 90.7883 42.1012C89.8478 41.7785 88.9228 41.9867 88.0132 42.7256C87.1037 43.4645 86.3021 44.7628 85.6082 46.6205C85.1427 47.8781 84.8804 48.9711 84.8213 49.8996C84.7696 50.8247 84.8996 51.5779 85.2113 52.1592C85.525 52.7352 85.9963 53.1311 86.6251 53.3468ZM106.129 52.1197L105.129 54.8212L97.5995 52.2383L98.5996 49.5368L106.129 52.1197ZM105.028 62.488L105.951 59.9943L113.825 56.6153C114.502 56.3072 115.081 56.0194 115.562 55.7519C116.048 55.4862 116.448 55.2 116.761 54.8932C117.077 54.581 117.314 54.2091 117.474 53.7775C117.652 53.298 117.694 52.8472 117.602 52.4253C117.512 51.998 117.311 51.6257 116.998 51.3083C116.688 50.9856 116.29 50.7413 115.807 50.5753C115.301 50.402 114.823 50.3521 114.372 50.4255C113.921 50.499 113.523 50.6898 113.179 50.9981C112.835 51.3063 112.566 51.7215 112.373 52.2437L109.059 51.1071C109.456 50.0361 110.045 49.1902 110.826 48.5694C111.607 47.9485 112.518 47.5735 113.559 47.4442C114.6 47.315 115.696 47.4476 116.846 47.8422C118.028 48.2478 118.98 48.8086 119.703 49.5248C120.432 50.2374 120.906 51.0426 121.125 51.9404C121.344 52.8381 121.279 53.7586 120.93 54.7017C120.701 55.3198 120.351 55.8875 119.881 56.4048C119.416 56.9239 118.736 57.4442 117.841 57.9657C116.947 58.4818 115.744 59.0569 114.231 59.691L110.954 61.2059L110.912 61.3178L117.845 63.6961L116.798 66.5255L105.028 62.488ZM125.667 69.9734C124.283 69.4925 123.215 68.7448 122.464 67.7305C121.718 66.7181 121.312 65.4829 121.246 64.0251C121.186 62.5691 121.489 60.9468 122.157 59.1583C122.818 57.3733 123.648 55.9433 124.645 54.8683C125.648 53.7952 126.768 53.1015 128.005 52.7871C129.249 52.4693 130.562 52.5473 131.943 53.0211C133.324 53.495 134.39 54.2328 135.139 55.2345C135.894 56.2382 136.308 57.4609 136.38 58.9028C136.454 60.3393 136.158 61.9492 135.491 63.7324C134.827 65.528 133.99 66.9704 132.981 68.0596C131.977 69.1505 130.854 69.8612 129.611 70.1915C128.369 70.5218 127.054 70.4491 125.667 69.9734ZM126.729 67.1041C127.675 67.4286 128.605 67.216 129.519 66.4665C130.432 65.717 131.235 64.3981 131.928 62.51C132.388 61.2685 132.641 60.1906 132.689 59.2762C132.742 58.3636 132.612 57.6193 132.298 57.0433C131.99 56.4692 131.522 56.0742 130.893 55.8585C129.952 55.5359 129.027 55.744 128.118 56.4829C127.208 57.2218 126.406 58.5201 125.713 60.3779C125.247 61.6354 124.985 62.7284 124.926 63.6569C124.874 64.582 125.004 65.3352 125.316 65.9165C125.629 66.4925 126.101 66.8884 126.729 67.1041ZM141.297 75.3349C139.912 74.8539 138.844 74.1063 138.093 73.092C137.347 72.0796 136.942 70.8444 136.876 69.3866C136.815 67.9306 137.119 66.3083 137.787 64.5198C138.448 62.7348 139.277 61.3048 140.275 60.2298C141.278 59.1567 142.397 58.4629 143.634 58.1486C144.879 57.8308 146.191 57.9088 147.573 58.3826C148.954 58.8564 150.019 59.5942 150.769 60.596C151.524 61.5997 151.937 62.8224 152.009 64.2643C152.083 65.7008 151.787 67.3107 151.121 69.0938C150.456 70.8895 149.619 72.3319 148.61 73.421C147.607 74.512 146.484 75.2226 145.241 75.553C143.998 75.8833 142.683 75.8106 141.297 75.3349ZM142.359 72.4656C143.305 72.7901 144.234 72.5775 145.148 71.828C146.061 71.0784 146.865 69.7596 147.558 67.8715C148.017 66.63 148.271 65.552 148.319 64.6376C148.372 63.7251 148.242 62.9808 147.928 62.4048C147.619 61.8306 147.151 61.4357 146.522 61.22C145.582 60.8974 144.657 61.1055 143.747 61.8444C142.838 62.5833 142.036 63.8816 141.342 65.7394C140.877 66.9969 140.614 68.0899 140.555 69.0184C140.503 69.9435 140.633 70.6967 140.945 71.278C141.259 71.854 141.73 72.2499 142.359 72.4656ZM156.926 80.6964C155.541 80.2154 154.474 79.4678 153.723 78.4535C152.977 77.4411 152.571 76.2059 152.505 74.7481C152.444 73.292 152.748 71.6698 153.416 69.8813C154.077 68.0963 154.906 66.6663 155.904 65.5913C156.907 64.5182 158.027 63.8244 159.264 63.5101C160.508 63.1923 161.821 63.2703 163.202 63.7441C164.583 64.2179 165.649 64.9557 166.398 65.9575C167.153 66.9611 167.567 68.1839 167.639 69.6258C167.713 71.0623 167.416 72.6722 166.75 74.4553C166.085 76.251 165.249 77.6934 164.24 78.7825C163.236 79.8735 162.113 80.5841 160.87 80.9144C159.627 81.2447 158.313 81.1721 156.926 80.6964ZM157.988 77.8271C158.934 78.1515 159.864 77.939 160.777 77.1895C161.691 76.4399 162.494 75.1211 163.187 73.233C163.647 71.9915 163.9 70.9135 163.948 69.9991C164.001 69.0866 163.871 68.3423 163.557 67.7663C163.249 67.1921 162.78 66.7972 162.152 66.5815C161.211 66.2588 160.286 66.467 159.376 67.2059C158.467 67.9448 157.665 69.2431 156.971 71.1009C156.506 72.3584 156.244 73.4514 156.185 74.3799C156.133 75.305 156.263 76.0582 156.575 76.6395C156.888 77.2155 157.36 77.6114 157.988 77.8271ZM181.653 84.7657L184.65 85.7936L190.291 70.5563L187.294 69.5283L186.444 71.824L181.382 70.0874L180.515 72.4282L185.578 74.1648L185.011 75.6953L179.949 73.9587L179.082 76.2994L184.144 78.036L181.653 84.7657ZM180.804 78.0062C178.072 77.5763 175.698 76.9396 173.162 76.1202L176.436 67.2749L173.462 66.2547L169.288 77.5308L170.968 78.1071C174.101 79.1817 176.912 80.0193 180.208 80.5157L180.804 78.0062ZM172.842 84.8629L174.366 80.7441L171.37 79.7162L168.97 86.1982L183.227 91.0888L184.102 88.7255L172.842 84.8629ZM195.461 77.7326L200.251 79.3758L201.142 76.9675L193.401 74.312L188.335 87.9963L189.788 88.4947C192.467 89.4137 194.725 90.0868 197.442 90.4864L198.107 88.0002C195.976 87.675 194.164 87.1801 192.195 86.5554L195.461 77.7326ZM208.799 76.8799L205.841 84.87L203.957 84.2236L206.765 76.6387L203.972 75.6808L196.798 95.0595L199.591 96.0174L203.074 86.6094L204.958 87.2557L201.117 97.6315L203.954 98.605L211.637 77.8533L208.799 76.8799Z" fill="#47292C"/>
</svg>
