<svg width="168" height="74" viewBox="0 0 168 74" fill="none" xmlns="http://www.w3.org/2000/svg">
<g filter="url(#filter0_d_112_25)">
<rect x="9.12271" y="26.4131" width="144.805" height="39.3612" transform="rotate(-9.85425 9.12271 26.4131)" fill="white"/>
<path d="M39.993 31.8697L42.9802 49.0667L39.3443 49.6983L36.9566 35.9524L36.8558 35.9699L33.3465 39.1227L32.7864 35.8983L36.5754 32.4633L39.993 31.8697ZM50.2616 29.8437C51.146 29.6901 52.0227 29.6906 52.8916 29.8454C53.766 29.9991 54.5815 30.3448 55.3381 30.8823C56.1002 31.4189 56.7622 32.192 57.324 33.2017C57.8904 34.2047 58.3115 35.4839 58.5874 37.0392C58.8412 38.5003 58.9027 39.8333 58.7717 41.0383C58.6454 42.2366 58.3467 43.2891 57.8756 44.1956C57.4044 45.1021 56.7743 45.8401 55.9851 46.4097C55.195 46.9737 54.2681 47.3481 53.2045 47.5329C52.0569 47.7322 51.0053 47.6871 50.0496 47.3975C49.0929 47.1024 48.2792 46.618 47.6086 45.9444C46.9426 45.2643 46.47 44.4525 46.1908 43.5091L49.7763 42.8863C50.0252 43.4889 50.4037 43.9249 50.9118 44.1942C51.4189 44.4579 52.0028 44.5323 52.6634 44.4176C53.783 44.2231 54.5493 43.5883 54.9623 42.5131C55.3743 41.4323 55.4353 40.0406 55.1453 38.3378L55.0277 38.3582C54.8577 38.9068 54.586 39.4009 54.2126 39.8406C53.8382 40.2747 53.3853 40.6389 52.8539 40.933C52.3281 41.2262 51.749 41.4277 51.1164 41.5376C50.1032 41.7136 49.1578 41.6327 48.2802 41.295C47.4026 40.9572 46.6619 40.4112 46.058 39.6568C45.454 38.9024 45.0592 37.9907 44.8735 36.9214C44.6676 35.7692 44.755 34.6958 45.1359 33.7012C45.5167 32.7065 46.1443 31.8709 47.0187 31.1942C47.8977 30.511 48.9787 30.0608 50.2616 29.8437ZM50.7827 32.6943C50.2173 32.7926 49.7368 33.0144 49.3412 33.3599C48.9513 33.7045 48.6669 34.1259 48.4882 34.624C48.315 35.1212 48.2799 35.6492 48.3827 36.2081C48.4809 36.7735 48.6926 37.2615 49.0176 37.6721C49.3473 38.0762 49.7511 38.3752 50.2288 38.569C50.7111 38.7563 51.2322 38.8013 51.792 38.704C52.2118 38.6311 52.5873 38.4851 52.9183 38.2662C53.2494 38.0472 53.5226 37.7777 53.7381 37.4577C53.9582 37.1311 54.1122 36.7728 54.2001 36.3826C54.2881 35.9925 54.2965 35.5931 54.2256 35.1845C54.1256 34.6424 53.9103 34.1666 53.5797 33.7569C53.249 33.3472 52.8387 33.0436 52.3488 32.8462C51.8589 32.6487 51.3369 32.5981 50.7827 32.6943ZM69.1336 44.7659C67.8405 44.9905 66.6536 44.9804 65.573 44.7356C64.4971 44.4842 63.6099 44.0415 62.9115 43.4073C62.2132 42.7732 61.7833 41.9915 61.6219 41.0622C61.4974 40.3456 61.5455 39.6597 61.7661 39.0043C61.9914 38.3423 62.3522 37.7635 62.8485 37.2679C63.3439 36.7666 63.9318 36.3992 64.6121 36.1657L64.5916 36.0481C63.6415 36.0229 62.8196 35.7072 62.1261 35.101C61.4316 34.4892 61.0027 33.7131 60.8393 32.7727C60.6847 31.8826 60.8074 31.0453 61.2075 30.2607C61.6065 29.4705 62.225 28.7979 63.0628 28.2429C63.9053 27.6814 64.9059 27.2999 66.0647 27.0987C67.2235 26.8974 68.2913 26.9195 69.2682 27.165C70.2507 27.4096 71.063 27.8365 71.7052 28.4458C72.3464 29.0495 72.7466 29.7932 72.9058 30.6767C73.0646 31.6237 72.9169 32.5 72.4628 33.3055C72.0087 34.111 71.3471 34.6844 70.4779 35.0257L70.4983 35.1432C71.2064 35.1356 71.8753 35.2847 72.5051 35.5905C73.1395 35.8897 73.6744 36.3129 74.1097 36.8602C74.5496 37.4008 74.8346 38.0289 74.9647 38.7445C75.1205 39.6747 74.9766 40.5561 74.533 41.3886C74.0894 42.2211 73.4007 42.9376 72.467 43.5381C71.5378 44.132 70.4267 44.5413 69.1336 44.7659ZM68.6698 42.0957C69.2463 41.9955 69.7322 41.8044 70.1272 41.5224C70.5213 41.2348 70.8067 40.8854 70.9832 40.4741C71.1643 40.0563 71.2126 39.6038 71.128 39.1168C71.0415 38.6186 70.8392 38.201 70.5212 37.8641C70.2022 37.5216 69.8082 37.2786 69.3392 37.1352C68.8693 36.9861 68.3544 36.9602 67.7946 37.0575C67.2404 37.1538 66.7644 37.3518 66.3667 37.6515C65.968 37.9457 65.6762 38.3078 65.4914 38.7378C65.3112 39.1613 65.2644 39.6221 65.3509 40.1203C65.4355 40.6073 65.6307 41.0175 65.9366 41.3507C66.2415 41.6784 66.6307 41.9107 67.1043 42.0475C67.577 42.1788 68.0988 42.1949 68.6698 42.0957ZM67.3351 34.4124C67.8166 34.3288 68.2278 34.1565 68.5688 33.8954C68.9099 33.6343 69.1566 33.3117 69.309 32.9277C69.4615 32.5437 69.4983 32.125 69.4195 31.6715C69.3417 31.2237 69.1673 30.8503 68.8962 30.5514C68.6242 30.2468 68.2869 30.0315 67.8844 29.9053C67.4809 29.7736 67.0328 29.7505 66.5402 29.8361C66.0532 29.9207 65.6391 30.0935 65.2981 30.3546C64.9561 30.6101 64.7084 30.927 64.555 31.3055C64.4062 31.6773 64.3707 32.0872 64.4485 32.535C64.5273 32.9884 64.7032 33.3702 64.9762 33.6804C65.2492 33.9905 65.5902 34.2109 65.9993 34.3417C66.4084 34.4725 66.8537 34.4961 67.3351 34.4124ZM85.119 42.1362C83.6737 42.3815 82.3692 42.2419 81.2055 41.7174C80.0473 41.192 79.0721 40.3089 78.2799 39.0682C77.4933 37.8266 76.9395 36.2648 76.6183 34.3829C76.2926 32.5076 76.292 30.8612 76.6168 29.4438C76.9471 28.0255 77.5702 26.8821 78.4863 26.0136C79.4069 25.1386 80.5866 24.5761 82.0253 24.3262C83.4639 24.0763 84.7614 24.2085 85.9176 24.7228C87.0794 25.236 88.0549 26.1046 88.8442 27.3285C89.6325 28.5468 90.1868 30.0941 90.5069 31.9704C90.8346 33.8569 90.8348 35.5178 90.5074 36.9529C90.1856 38.3871 89.5681 39.5468 88.655 40.4321C87.7419 41.3173 86.5632 41.8854 85.119 42.1362ZM84.5953 39.1217C85.5806 38.9506 86.281 38.3185 86.6967 37.2256C87.1124 36.1326 87.1453 34.5958 86.7955 32.6151C86.5689 31.3108 86.2459 30.2481 85.8265 29.4271C85.4126 28.6051 84.9243 28.0181 84.3614 27.666C83.8042 27.313 83.198 27.1934 82.5431 27.3072C81.5634 27.4773 80.8648 28.1033 80.4472 29.185C80.0295 30.2668 79.9876 31.785 80.3214 33.7397C80.5509 35.0608 80.874 36.1407 81.2907 36.9795C81.7121 37.8117 82.2047 38.4067 82.7686 38.7643C83.3314 39.1163 83.9404 39.2355 84.5953 39.1217ZM105.885 17.751L108.682 33.8539L111.827 33.3076L109.03 17.2047L105.885 17.751ZM101.011 21.1066L101.438 23.5658L107.799 22.4609L107.372 20.0017L101.011 21.1066ZM97.8609 38.7298L98.2963 41.2362L113.264 38.6362L112.829 36.1298L97.8609 38.7298ZM97.1051 34.3789L98.0827 40.0066L101.251 39.4563L100.274 33.8285L97.1051 34.3789ZM92.1525 21.5736L93.9392 31.8596L97.0605 31.3174L95.2738 21.0314L92.1525 21.5736ZM93.7749 30.9137L94.2185 33.4675L95.9683 33.1635C99.2551 32.5926 102.119 31.9733 105.233 30.8235L104.509 28.3427C101.483 29.4287 98.6933 30.0594 95.5247 30.6098L93.7749 30.9137ZM101.718 25.1737L102.149 27.6565L108.51 26.5516L108.079 24.0688L101.718 25.1737ZM128.276 13.8616L132.079 35.7577L135.059 35.2402L131.255 13.3441L128.276 13.8616ZM126.806 22.7889L127.245 25.319L130.887 24.6864L130.447 22.1563L126.806 22.7889ZM123.447 15.0902L127.004 35.5675L129.912 35.0623L126.355 14.585L123.447 15.0902ZM115.569 30.8794L116.016 33.4568L117.553 33.1898C120.367 32.701 122.672 32.2276 125.23 31.2473L124.55 28.7346C122.031 29.6594 119.801 30.1442 117.106 30.6124L115.569 30.8794ZM113.511 19.0328L115.782 32.109L118.904 31.5668L117.072 21.0207L122.037 20.1582L121.598 17.628L113.511 19.0328Z" fill="#47292C"/>
</g>
<defs>
<filter id="filter0_d_112_25" x="5.12271" y="1.63086" width="157.405" height="71.5625" filterUnits="userSpaceOnUse" color-interpolation-filters="sRGB">
<feFlood flood-opacity="0" result="BackgroundImageFix"/>
<feColorMatrix in="SourceAlpha" type="matrix" values="0 0 0 0 0 0 0 0 0 0 0 0 0 0 0 0 0 0 127 0" result="hardAlpha"/>
<feOffset dy="4"/>
<feGaussianBlur stdDeviation="2"/>
<feComposite in2="hardAlpha" operator="out"/>
<feColorMatrix type="matrix" values="0 0 0 0 0 0 0 0 0 0 0 0 0 0 0 0 0 0 0.25 0"/>
<feBlend mode="normal" in2="BackgroundImageFix" result="effect1_dropShadow_112_25"/>
<feBlend mode="normal" in="SourceGraphic" in2="effect1_dropShadow_112_25" result="shape"/>
</filter>
</defs>
</svg>
