<svg width="169" height="83" viewBox="0 0 169 83" fill="none" xmlns="http://www.w3.org/2000/svg">
<g filter="url(#filter0_d_154_24)">
<rect x="18.568" y="2.32715" width="144.805" height="39.3612" transform="rotate(13.3361 18.568 2.32715)" fill="black"/>
<path d="M33.4146 34.7392L34.028 32.1519L41.4005 27.9873C42.0326 27.6116 42.57 27.266 43.0127 26.9505C43.4609 26.6363 43.8214 26.3101 44.0943 25.9719C44.3684 25.6282 44.5586 25.2324 44.6648 24.7846C44.7827 24.287 44.771 23.8316 44.6295 23.4185C44.4893 22.9999 44.2459 22.6473 43.8992 22.3608C43.5539 22.0687 43.1324 21.8637 42.6348 21.7457C42.1152 21.6225 41.6369 21.6201 41.2001 21.7385C40.7633 21.8568 40.3933 22.0873 40.0902 22.4301C39.787 22.7728 39.5713 23.2151 39.4428 23.7569L36.0344 22.9489C36.2979 21.8376 36.7781 20.9325 37.4752 20.2336C38.1723 19.5346 39.0272 19.0687 40.0401 18.8358C41.0529 18.6029 42.1509 18.6267 43.334 18.9072C44.5503 19.1955 45.5579 19.6621 46.3569 20.3069C47.1626 20.9476 47.7273 21.7062 48.0508 22.5829C48.3744 23.4596 48.4202 24.3872 48.1882 25.3658C48.0362 26.0071 47.759 26.61 47.3566 27.1744C46.9597 27.7402 46.3501 28.3285 45.528 28.9394C44.7071 29.5448 43.5876 30.24 42.1694 31.025L39.1138 32.867L39.0863 32.9831L46.2182 34.6737L45.5223 37.6094L33.4146 34.7392ZM54.6949 40.178C53.2698 39.8344 52.1257 39.1923 51.2625 38.252C50.4049 37.3129 49.8562 36.1172 49.6166 34.6648C49.3825 33.2137 49.4884 31.56 49.9343 29.7037C50.3733 27.8516 51.0212 26.3381 51.8778 25.1631C52.74 23.9894 53.763 23.1838 54.947 22.7462C56.1379 22.3044 57.4437 22.252 58.8645 22.5888C60.2854 22.9256 61.426 23.558 62.2862 24.486C63.152 25.4153 63.7067 26.5979 63.9503 28.0337C64.1952 29.464 64.0953 31.1045 63.6507 32.9553C63.2091 34.8184 62.5552 36.3451 61.6891 37.5354C60.8285 38.727 59.8043 39.5499 58.6164 40.004C57.4284 40.4581 56.1213 40.5161 54.6949 40.178ZM55.4007 37.2009C56.3737 37.4315 57.2665 37.1264 58.0789 36.2854C58.8914 35.4445 59.5269 34.0448 59.9853 32.0864C60.2906 30.7982 60.4122 29.6942 60.35 28.7743C60.2933 27.8558 60.0755 27.1239 59.6968 26.5787C59.3235 26.0347 58.8135 25.6861 58.1667 25.5328C57.1992 25.3034 56.3105 25.6037 55.5006 26.4336C54.6908 27.2635 54.0544 28.6425 53.5914 30.5707C53.2821 31.8754 53.1539 32.9953 53.2067 33.9305C53.2663 34.8614 53.4848 35.6022 53.8622 36.153C54.241 36.6982 54.7538 37.0475 55.4007 37.2009ZM75.6171 26.8053L71.591 43.7892L68.0002 42.938L71.2183 29.3625L71.1188 29.3389L66.6515 30.855L67.4064 27.6705L72.2419 26.0052L75.6171 26.8053ZM82.1983 46.6979C80.7732 46.3542 79.6291 45.7122 78.7659 44.7718C77.9083 43.8327 77.3596 42.637 77.12 41.1846C76.8859 39.7335 76.9918 38.0799 77.4377 36.2236C77.8767 34.3715 78.5246 32.8579 79.3812 31.6829C80.2434 30.5092 81.2664 29.7036 82.4504 29.2661C83.6413 28.8243 84.9471 28.7718 86.3679 29.1086C87.7888 29.4454 88.9294 30.0779 89.7896 31.0059C90.6554 31.9352 91.2101 33.1177 91.4537 34.5535C91.6986 35.9838 91.5987 37.6243 91.1541 39.4751C90.7125 41.3383 90.0586 42.865 89.1925 44.0552C88.3319 45.2468 87.3077 46.0697 86.1198 46.5238C84.9318 46.978 83.6247 47.036 82.1983 46.6979ZM82.9041 43.7207C83.8771 43.9514 84.7699 43.6462 85.5823 42.8053C86.3948 41.9643 87.0303 40.5646 87.4887 38.6062C87.794 37.318 87.9156 36.214 87.8534 35.2942C87.7967 34.3757 87.5789 33.6438 87.2002 33.0985C86.8269 32.5546 86.3169 32.2059 85.6701 32.0526C84.7026 31.8232 83.8139 32.1235 83.004 32.9534C82.1942 33.7833 81.5578 35.1623 81.0948 37.0905C80.7855 38.3953 80.6573 39.5152 80.7101 40.4503C80.7697 41.3812 80.9882 42.122 81.3657 42.6728C81.7444 43.2181 82.2572 43.5674 82.9041 43.7207ZM110.889 32.4603L107.119 48.3636L110.225 49.0998L113.995 33.1966L110.889 32.4603ZM105.088 33.6256L104.512 36.0543L110.794 37.5434L111.37 35.1147L105.088 33.6256ZM95.2521 48.5842L94.6653 51.0596L109.448 54.5639L110.034 52.0885L95.2521 48.5842ZM96.2707 44.2873L94.9532 49.8453L98.0825 50.5871L99.4 45.0291L96.2707 44.2873ZM96.7609 30.5664L94.3527 40.7248L97.4353 41.4556L99.8434 31.2971L96.7609 30.5664ZM94.5742 39.7907L93.9763 42.3128L95.7044 42.7225C98.9504 43.492 101.827 44.0506 105.142 44.2197L105.454 41.6545C102.244 41.4609 99.4316 40.9422 96.3023 40.2004L94.5742 39.7907ZM104.136 37.6423L103.554 40.0943L109.836 41.5835L110.417 39.1314L104.136 37.6423ZM133.002 37.7024L127.876 59.3271L130.818 60.0246L135.945 38.3999L133.002 37.7024ZM128.136 45.3295L127.543 47.8283L131.14 48.6808L131.732 46.1821L128.136 45.3295ZM128.08 36.9301L123.286 57.1536L126.158 57.8345L130.952 37.611L128.08 36.9301ZM114.621 48.3413L114.017 50.8867L115.535 51.2466C118.314 51.9054 120.619 52.3778 123.357 52.4841L123.721 49.9066C121.041 49.7647 118.801 49.3322 116.139 48.7011L114.621 48.3413ZM117.394 36.6415L114.333 49.5556L117.415 50.2864L119.884 39.871L124.788 41.0336L125.381 38.5348L117.394 36.6415Z" fill="#FFC031"/>
</g>
<defs>
<filter id="filter0_d_154_24" x="5.48883" y="2.32715" width="157.979" height="79.7012" filterUnits="userSpaceOnUse" color-interpolation-filters="sRGB">
<feFlood flood-opacity="0" result="BackgroundImageFix"/>
<feColorMatrix in="SourceAlpha" type="matrix" values="0 0 0 0 0 0 0 0 0 0 0 0 0 0 0 0 0 0 127 0" result="hardAlpha"/>
<feOffset dy="4"/>
<feGaussianBlur stdDeviation="2"/>
<feComposite in2="hardAlpha" operator="out"/>
<feColorMatrix type="matrix" values="0 0 0 0 0 0 0 0 0 0 0 0 0 0 0 0 0 0 0.25 0"/>
<feBlend mode="normal" in2="BackgroundImageFix" result="effect1_dropShadow_154_24"/>
<feBlend mode="normal" in="SourceGraphic" in2="effect1_dropShadow_154_24" result="shape"/>
</filter>
</defs>
</svg>
